<svg xmlns="http://www.w3.org/2000/svg" width="1200" height="600" style="background-color: rgb(245, 241, 237)" data-real-to-screen-transform="matrix(44.5141282897,0,0,-44.5141282897,648.1257078983,80.5809588343)"><style>
              .boundary { fill: rgb(245, 241, 237); }
              .schematic-boundary { fill: none; stroke: #fff; }
              .component { fill: none; stroke: rgb(132, 0, 0); }
              .chip { fill: rgb(255, 255, 194); stroke: rgb(132, 0, 0); }
              .component-pin { fill: none; stroke: rgb(132, 0, 0); }
              /* Basic per-trace hover fallback */
              .trace:hover {
                filter: invert(1);
              }
              .trace:hover .trace-crossing-outline {
                opacity: 0;
              }
              .trace:hover .trace-junction {
                filter: invert(1);
              }
              /* Net-hover highlighting: when a trace or its overlays are hovered,
                 invert color for all traces (base + overlays) sharing the same
                 subcircuit connectivity key. Also hide crossing outline during hover. */
              svg:has(:is(g.trace[data-subcircuit-connectivity-map-key="unnamedsubcircuit240_connectivity_net2"], g.trace-overlays[data-subcircuit-connectivity-map-key="unnamedsubcircuit240_connectivity_net2"]):hover) :is(g.trace[data-subcircuit-connectivity-map-key="unnamedsubcircuit240_connectivity_net2"], g.trace-overlays[data-subcircuit-connectivity-map-key="unnamedsubcircuit240_connectivity_net2"]) { filter: invert(1); }
svg:has(:is(g.trace[data-subcircuit-connectivity-map-key="unnamedsubcircuit240_connectivity_net2"], g.trace-overlays[data-subcircuit-connectivity-map-key="unnamedsubcircuit240_connectivity_net2"]):hover) g.trace-overlays[data-subcircuit-connectivity-map-key="unnamedsubcircuit240_connectivity_net2"] .trace-crossing-outline { opacity: 0; }
svg:has(:is(g.trace[data-subcircuit-connectivity-map-key="unnamedsubcircuit240_connectivity_net3"], g.trace-overlays[data-subcircuit-connectivity-map-key="unnamedsubcircuit240_connectivity_net3"]):hover) :is(g.trace[data-subcircuit-connectivity-map-key="unnamedsubcircuit240_connectivity_net3"], g.trace-overlays[data-subcircuit-connectivity-map-key="unnamedsubcircuit240_connectivity_net3"]) { filter: invert(1); }
svg:has(:is(g.trace[data-subcircuit-connectivity-map-key="unnamedsubcircuit240_connectivity_net3"], g.trace-overlays[data-subcircuit-connectivity-map-key="unnamedsubcircuit240_connectivity_net3"]):hover) g.trace-overlays[data-subcircuit-connectivity-map-key="unnamedsubcircuit240_connectivity_net3"] .trace-crossing-outline { opacity: 0; }
svg:has(:is(g.trace[data-subcircuit-connectivity-map-key="unnamedsubcircuit240_connectivity_net4"], g.trace-overlays[data-subcircuit-connectivity-map-key="unnamedsubcircuit240_connectivity_net4"]):hover) :is(g.trace[data-subcircuit-connectivity-map-key="unnamedsubcircuit240_connectivity_net4"], g.trace-overlays[data-subcircuit-connectivity-map-key="unnamedsubcircuit240_connectivity_net4"]) { filter: invert(1); }
svg:has(:is(g.trace[data-subcircuit-connectivity-map-key="unnamedsubcircuit240_connectivity_net4"], g.trace-overlays[data-subcircuit-connectivity-map-key="unnamedsubcircuit240_connectivity_net4"]):hover) g.trace-overlays[data-subcircuit-connectivity-map-key="unnamedsubcircuit240_connectivity_net4"] .trace-crossing-outline { opacity: 0; }
svg:has(:is(g.trace[data-subcircuit-connectivity-map-key="unnamedsubcircuit240_connectivity_net1"], g.trace-overlays[data-subcircuit-connectivity-map-key="unnamedsubcircuit240_connectivity_net1"]):hover) :is(g.trace[data-subcircuit-connectivity-map-key="unnamedsubcircuit240_connectivity_net1"], g.trace-overlays[data-subcircuit-connectivity-map-key="unnamedsubcircuit240_connectivity_net1"]) { filter: invert(1); }
svg:has(:is(g.trace[data-subcircuit-connectivity-map-key="unnamedsubcircuit240_connectivity_net1"], g.trace-overlays[data-subcircuit-connectivity-map-key="unnamedsubcircuit240_connectivity_net1"]):hover) g.trace-overlays[data-subcircuit-connectivity-map-key="unnamedsubcircuit240_connectivity_net1"] .trace-crossing-outline { opacity: 0; }
svg:has(:is(g.trace[data-subcircuit-connectivity-map-key="undefined"], g.trace-overlays[data-subcircuit-connectivity-map-key="undefined"]):hover) :is(g.trace[data-subcircuit-connectivity-map-key="undefined"], g.trace-overlays[data-subcircuit-connectivity-map-key="undefined"]) { filter: invert(1); }
svg:has(:is(g.trace[data-subcircuit-connectivity-map-key="undefined"], g.trace-overlays[data-subcircuit-connectivity-map-key="undefined"]):hover) g.trace-overlays[data-subcircuit-connectivity-map-key="undefined"] .trace-crossing-outline { opacity: 0; }
              .text { font-family: sans-serif; fill: rgb(0, 150, 0); }
              .pin-number { fill: rgb(169, 0, 0); }
              .port-label { fill: rgb(0, 100, 100); }
              .component-name { fill: rgb(0, 100, 100); }
            </style><rect class="boundary" x="0" y="0" width="1200" height="600"/><g class="trace" data-layer="base" data-circuit-json-type="schematic_trace" data-schematic-trace-id="schematic_trace_0" data-subcircuit-connectivity-map-key="unnamedsubcircuit240_connectivity_net2"><path d="M 514.5833230292001 505.690884000935 L 514.5833230292001 514.593709658875 L 425.5550664498 514.593709658875 L 425.5550664498 503.2426069450015" class="trace-invisible-hover-outline" stroke="rgb(0, 150, 0)" fill="none" stroke-width="7.122260526352px" stroke-linecap="round" opacity="0" stroke-linejoin="round"/><path d="M 514.5833230292001 505.690884000935 L 514.5833230292001 514.593709658875 L 425.5550664498 514.593709658875 L 425.5550664498 503.2426069450015" stroke="rgb(0, 150, 0)" fill="none" stroke-width="0.890282565794px" stroke-linecap="round" stroke-linejoin="round"/></g><g class="trace" data-layer="base" data-circuit-json-type="schematic_trace" data-schematic-trace-id="schematic_trace_1" data-subcircuit-connectivity-map-key="unnamedsubcircuit240_connectivity_net3"><path d="M 247.498553291 238.606114262735 L 247.498553291 247.508939920675 L 207.43583783027003 247.508939920675 L 207.43583783027003 218.57475653236997 L 167.37312236954 218.57475653236997" class="trace-invisible-hover-outline" stroke="rgb(0, 150, 0)" fill="none" stroke-width="7.122260526352px" stroke-linecap="round" opacity="0" stroke-linejoin="round"/><path d="M 247.498553291 238.606114262735 L 247.498553291 247.508939920675 L 207.43583783027003 247.508939920675 L 207.43583783027003 218.57475653236997 L 167.37312236954 218.57475653236997" stroke="rgb(0, 150, 0)" fill="none" stroke-width="0.890282565794px" stroke-linecap="round" stroke-linejoin="round"/></g><g class="trace" data-layer="base" data-circuit-json-type="schematic_trace" data-schematic-trace-id="schematic_trace_2" data-subcircuit-connectivity-map-key="unnamedsubcircuit240_connectivity_net4"><path d="M 247.498553291 189.640573144065 L 247.498553291 180.737747486125 L 207.43583783027003 180.737747486125 L 207.43583783027003 209.67193087443002 L 167.37312236954 209.67193087443002" class="trace-invisible-hover-outline" stroke="rgb(0, 150, 0)" fill="none" stroke-width="7.122260526352px" stroke-linecap="round" opacity="0" stroke-linejoin="round"/><path d="M 247.498553291 189.640573144065 L 247.498553291 180.737747486125 L 207.43583783027003 180.737747486125 L 207.43583783027003 209.67193087443002 L 167.37312236954 209.67193087443002" stroke="rgb(0, 150, 0)" fill="none" stroke-width="0.890282565794px" stroke-linecap="round" stroke-linejoin="round"/></g><g class="trace" data-layer="base" data-circuit-json-type="schematic_trace" data-schematic-trace-id="schematic_trace_3" data-subcircuit-connectivity-map-key="unnamedsubcircuit240_connectivity_net1"><path d="M 514.5833230292001 456.72534288226495 L 514.5833230292001 447.822517224325 L 425.5550664498 447.822517224325 L 425.5550664498 459.17361993819844" class="trace-invisible-hover-outline" stroke="rgb(0, 150, 0)" fill="none" stroke-width="7.122260526352px" stroke-linecap="round" opacity="0" stroke-linejoin="round"/><path d="M 514.5833230292001 456.72534288226495 L 514.5833230292001 447.822517224325 L 425.5550664498 447.822517224325 L 425.5550664498 459.17361993819844" stroke="rgb(0, 150, 0)" fill="none" stroke-width="0.890282565794px" stroke-linecap="round" stroke-linejoin="round"/></g><g class="trace" data-layer="base" data-circuit-json-type="schematic_trace" data-schematic-trace-id="schematic_trace_4"><path d="M 1033.172917604205 196.31769238751997 L 915.2104776365 196.31769238751997 L 915.2104776365 278.66882972346497" class="trace-invisible-hover-outline" stroke="rgb(0, 150, 0)" fill="none" stroke-width="7.122260526352px" stroke-linecap="round" opacity="0" stroke-linejoin="round"/><path d="M 1033.172917604205 196.31769238751997 L 915.2104776365 196.31769238751997 L 915.2104776365 278.66882972346497" stroke="rgb(0, 150, 0)" fill="none" stroke-width="0.890282565794px" stroke-linecap="round" stroke-linejoin="round"/></g><g class="trace" data-layer="base" data-circuit-json-type="schematic_trace" data-schematic-trace-id="schematic_trace_5"><path d="M 1153.361063986395 205.22051804545998 L 1162.2638896443348 205.22051804545998 L 1162.2638896443348 360.3522551350645 L 257.2916615147341 360.3522551350645 L 257.2916615147341 393.070139427994 L 266.19448717267403 393.070139427994" class="trace-invisible-hover-outline" stroke="rgb(0, 150, 0)" fill="none" stroke-width="7.122260526352px" stroke-linecap="round" opacity="0" stroke-linejoin="round"/><path d="M 1153.361063986395 205.22051804545998 L 1162.2638896443348 205.22051804545998 L 1162.2638896443348 360.3522551350645 L 257.2916615147341 360.3522551350645 L 257.2916615147341 393.070139427994 L 266.19448717267403 393.070139427994" stroke="rgb(0, 150, 0)" fill="none" stroke-width="0.890282565794px" stroke-linecap="round" stroke-linejoin="round"/></g><g class="trace" data-layer="base" data-circuit-json-type="schematic_trace" data-schematic-trace-id="schematic_trace_6"><path d="M 381.04093816010004 149.577857683335 L 381.04093816010004 247.508939920675 L 470.0691947395 247.508939920675 L 470.0691947395 238.606114262735" class="trace-invisible-hover-outline" stroke="rgb(0, 150, 0)" fill="none" stroke-width="7.122260526352px" stroke-linecap="round" opacity="0" stroke-linejoin="round"/><path d="M 381.04093816010004 149.577857683335 L 381.04093816010004 247.508939920675 L 470.0691947395 247.508939920675 L 470.0691947395 238.606114262735" stroke="rgb(0, 150, 0)" fill="none" stroke-width="0.890282565794px" stroke-linecap="round" stroke-linejoin="round"/></g><g class="trace" data-layer="base" data-circuit-json-type="schematic_trace" data-schematic-trace-id="schematic_trace_7"><path d="M 737.1539644777 327.634370842135 L 737.1539644777 336.537196500075 L 915.2104776365 336.537196500075 L 915.2104776365 327.634370842135" class="trace-invisible-hover-outline" stroke="rgb(0, 150, 0)" fill="none" stroke-width="7.122260526352px" stroke-linecap="round" opacity="0" stroke-linejoin="round"/><path d="M 737.1539644777 327.634370842135 L 737.1539644777 336.537196500075 L 915.2104776365 336.537196500075 L 915.2104776365 327.634370842135" stroke="rgb(0, 150, 0)" fill="none" stroke-width="0.890282565794px" stroke-linecap="round" stroke-linejoin="round"/></g><g class="trace" data-layer="base" data-circuit-json-type="schematic_trace" data-schematic-trace-id="schematic_trace_8"><path d="M 381.04093816010004 327.63437084213496 L 381.04093816010004 336.53719650007497 L 372.13811250216 336.53719650007497 L 372.13811250216 91.70949090672508 L 381.04093816010004 91.70949090672508 L 381.04093816010004 100.61231656466505" class="trace-invisible-hover-outline" stroke="rgb(0, 150, 0)" fill="none" stroke-width="7.122260526352px" stroke-linecap="round" opacity="0" stroke-linejoin="round"/><path d="M 381.04093816010004 327.63437084213496 L 381.04093816010004 336.53719650007497 L 372.13811250216 336.53719650007497 L 372.13811250216 91.70949090672508 L 381.04093816010004 91.70949090672508 L 381.04093816010004 100.61231656466505" stroke="rgb(0, 150, 0)" fill="none" stroke-width="0.890282565794px" stroke-linecap="round" stroke-linejoin="round"/></g><g class="trace" data-layer="base" data-circuit-json-type="schematic_trace" data-schematic-trace-id="schematic_trace_9"><path d="M 672.608478457635 214.1233437034 L 737.1539644777 214.1233437034 L 737.1539644777 278.66882972346497" class="trace-invisible-hover-outline" stroke="rgb(0, 150, 0)" fill="none" stroke-width="7.122260526352px" stroke-linecap="round" opacity="0" stroke-linejoin="round"/><path d="M 672.608478457635 214.1233437034 L 737.1539644777 214.1233437034 L 737.1539644777 278.66882972346497" stroke="rgb(0, 150, 0)" fill="none" stroke-width="0.890282565794px" stroke-linecap="round" stroke-linejoin="round"/></g><g class="trace-overlays" data-layer="overlay" data-circuit-json-type="schematic_trace" data-schematic-trace-id="schematic_trace_0" data-subcircuit-connectivity-map-key="unnamedsubcircuit240_connectivity_net2"/><g class="trace-overlays" data-layer="overlay" data-circuit-json-type="schematic_trace" data-schematic-trace-id="schematic_trace_1" data-subcircuit-connectivity-map-key="unnamedsubcircuit240_connectivity_net3"/><g class="trace-overlays" data-layer="overlay" data-circuit-json-type="schematic_trace" data-schematic-trace-id="schematic_trace_2" data-subcircuit-connectivity-map-key="unnamedsubcircuit240_connectivity_net4"/><g class="trace-overlays" data-layer="overlay" data-circuit-json-type="schematic_trace" data-schematic-trace-id="schematic_trace_3" data-subcircuit-connectivity-map-key="unnamedsubcircuit240_connectivity_net1"/><g class="trace-overlays" data-layer="overlay" data-circuit-json-type="schematic_trace" data-schematic-trace-id="schematic_trace_4"/><g class="trace-overlays" data-layer="overlay" data-circuit-json-type="schematic_trace" data-schematic-trace-id="schematic_trace_5"/><g class="trace-overlays" data-layer="overlay" data-circuit-json-type="schematic_trace" data-schematic-trace-id="schematic_trace_6"/><g class="trace-overlays" data-layer="overlay" data-circuit-json-type="schematic_trace" data-schematic-trace-id="schematic_trace_7"/><g class="trace-overlays" data-layer="overlay" data-circuit-json-type="schematic_trace" data-schematic-trace-id="schematic_trace_8"/><g class="trace-overlays" data-layer="overlay" data-circuit-json-type="schematic_trace" data-schematic-trace-id="schematic_trace_9"/><g data-circuit-json-type="schematic_component" data-schematic-component-id="schematic_component_0"><rect class="component chip" x="1050.9785689200849" y="178.51204107164" width="84.57684375043004" height="71.22260526352" stroke-width="0.890282565794px" fill="rgb(255, 255, 194)" stroke="rgb(132, 0, 0)"/><rect class="component-overlay" x="1050.9785689200849" y="178.51204107164" width="84.57684375043004" height="71.22260526352" fill="transparent"/><text x="1050.9785689200849" y="255.52148301282097" fill="#006464" text-anchor="start" dominant-baseline="middle" font-family="sans-serif" font-size="8.012543092145998px" transform="rotate(0, 1050.9785689200849, 255.52148301282097)"></text><text x="1050.9785689200849" y="172.72520439397903" fill="#006464" text-anchor="start" dominant-baseline="middle" font-family="sans-serif" font-size="8.012543092145998px" transform="rotate(0, 1050.9785689200849, 172.72520439397903)">U1</text><line class="component-pin" x1="1050.9785689200849" y1="187.41486672958" x2="1034.063200169999" y2="187.41486672958" stroke-width="0.890282565794px"/><g data-schematic-port-id="source_port_0"><circle class="component-pin" cx="1033.172917604205" cy="187.41486672958" r="0.890282565794" stroke-width="0.890282565794px"/><rect x="1032.282635038411" y="186.52458416378602" width="1.780565131588" height="1.780565131588" opacity="0"/></g><text class="pin-number" x="1042.075743262145" y="186.524584163786" style="font-family: sans-serif;" fill="rgb(169, 0, 0)" text-anchor="middle" dominant-baseline="auto" font-size="6.6771192434549995px" transform="">1</text><text class="pin-number" x="1055.429981749055" y="187.41486672958" style="font-family: sans-serif;" fill="rgb(169, 0, 0)" text-anchor="start" dominant-baseline="middle" font-size="6.6771192434549995px" transform="">D0_A0</text><line class="component-pin" x1="1050.9785689200849" y1="196.31769238752" x2="1033.172917604205" y2="196.31769238752" stroke-width="0.890282565794px"/><g data-schematic-port-id="source_port_1"><rect x="1032.282635038411" y="195.427409821726" width="1.780565131588" height="1.780565131588" opacity="0"/></g><text class="pin-number" x="1042.075743262145" y="195.427409821726" style="font-family: sans-serif;" fill="rgb(169, 0, 0)" text-anchor="middle" dominant-baseline="auto" font-size="6.6771192434549995px" transform="">2</text><text class="pin-number" x="1055.429981749055" y="196.31769238752" style="font-family: sans-serif;" fill="rgb(169, 0, 0)" text-anchor="start" dominant-baseline="middle" font-size="6.6771192434549995px" transform="">D1_A1</text><line class="component-pin" x1="1050.9785689200849" y1="205.22051804545998" x2="1034.063200169999" y2="205.22051804545998" stroke-width="0.890282565794px"/><g data-schematic-port-id="source_port_2"><circle class="component-pin" cx="1033.172917604205" cy="205.22051804545998" r="0.890282565794" stroke-width="0.890282565794px"/><rect x="1032.282635038411" y="204.330235479666" width="1.780565131588" height="1.780565131588" opacity="0"/></g><text class="pin-number" x="1042.075743262145" y="204.330235479666" style="font-family: sans-serif;" fill="rgb(169, 0, 0)" text-anchor="middle" dominant-baseline="auto" font-size="6.6771192434549995px" transform="">3</text><text class="pin-number" x="1055.429981749055" y="205.22051804545998" style="font-family: sans-serif;" fill="rgb(169, 0, 0)" text-anchor="start" dominant-baseline="middle" font-size="6.6771192434549995px" transform="">D2_A2</text><line class="component-pin" x1="1050.9785689200849" y1="214.1233437034" x2="1034.063200169999" y2="214.1233437034" stroke-width="0.890282565794px"/><g data-schematic-port-id="source_port_3"><circle class="component-pin" cx="1033.172917604205" cy="214.1233437034" r="0.890282565794" stroke-width="0.890282565794px"/><rect x="1032.282635038411" y="213.233061137606" width="1.780565131588" height="1.780565131588" opacity="0"/></g><text class="pin-number" x="1042.075743262145" y="213.233061137606" style="font-family: sans-serif;" fill="rgb(169, 0, 0)" text-anchor="middle" dominant-baseline="auto" font-size="6.6771192434549995px" transform="">4</text><text class="pin-number" x="1055.429981749055" y="214.1233437034" style="font-family: sans-serif;" fill="rgb(169, 0, 0)" text-anchor="start" dominant-baseline="middle" font-size="6.6771192434549995px" transform="">D3_A3</text><line class="component-pin" x1="1050.9785689200849" y1="223.02616936134" x2="1034.063200169999" y2="223.02616936134" stroke-width="0.890282565794px"/><g data-schematic-port-id="source_port_4"><circle class="component-pin" cx="1033.172917604205" cy="223.02616936134" r="0.890282565794" stroke-width="0.890282565794px"/><rect x="1032.282635038411" y="222.135886795546" width="1.780565131588" height="1.780565131588" opacity="0"/></g><text class="pin-number" x="1042.075743262145" y="222.135886795546" style="font-family: sans-serif;" fill="rgb(169, 0, 0)" text-anchor="middle" dominant-baseline="auto" font-size="6.6771192434549995px" transform="">5</text><text class="pin-number" x="1055.429981749055" y="223.02616936134" style="font-family: sans-serif;" fill="rgb(169, 0, 0)" text-anchor="start" dominant-baseline="middle" font-size="6.6771192434549995px" transform="">D4_SDA</text><line class="component-pin" x1="1050.9785689200849" y1="231.92899501927997" x2="1034.063200169999" y2="231.92899501927997" stroke-width="0.890282565794px"/><g data-schematic-port-id="source_port_5"><circle class="component-pin" cx="1033.172917604205" cy="231.92899501927997" r="0.890282565794" stroke-width="0.890282565794px"/><rect x="1032.282635038411" y="231.03871245348597" width="1.780565131588" height="1.780565131588" opacity="0"/></g><text class="pin-number" x="1042.075743262145" y="231.03871245348597" style="font-family: sans-serif;" fill="rgb(169, 0, 0)" text-anchor="middle" dominant-baseline="auto" font-size="6.6771192434549995px" transform="">6</text><text class="pin-number" x="1055.429981749055" y="231.92899501927997" style="font-family: sans-serif;" fill="rgb(169, 0, 0)" text-anchor="start" dominant-baseline="middle" font-size="6.6771192434549995px" transform="">D5_SCL</text><line class="component-pin" x1="1050.9785689200849" y1="240.83182067721998" x2="1034.063200169999" y2="240.83182067721998" stroke-width="0.890282565794px"/><g data-schematic-port-id="source_port_6"><circle class="component-pin" cx="1033.172917604205" cy="240.83182067721998" r="0.890282565794" stroke-width="0.890282565794px"/><rect x="1032.282635038411" y="239.94153811142598" width="1.780565131588" height="1.780565131588" opacity="0"/></g><text class="pin-number" x="1042.075743262145" y="239.94153811142598" style="font-family: sans-serif;" fill="rgb(169, 0, 0)" text-anchor="middle" dominant-baseline="auto" font-size="6.6771192434549995px" transform="">7</text><text class="pin-number" x="1055.429981749055" y="240.83182067721998" style="font-family: sans-serif;" fill="rgb(169, 0, 0)" text-anchor="start" dominant-baseline="middle" font-size="6.6771192434549995px" transform="">D6_TX</text><line class="component-pin" x1="1135.555412670515" y1="240.83182067721998" x2="1152.470781420601" y2="240.83182067721998" stroke-width="0.890282565794px"/><g data-schematic-port-id="source_port_7"><circle class="component-pin" cx="1153.361063986395" cy="240.83182067721998" r="0.890282565794" stroke-width="0.890282565794px"/><rect x="1152.470781420601" y="239.94153811142598" width="1.780565131588" height="1.780565131588" opacity="0"/></g><text class="pin-number" x="1144.458238328455" y="239.94153811142598" style="font-family: sans-serif;" fill="rgb(169, 0, 0)" text-anchor="middle" dominant-baseline="auto" font-size="6.6771192434549995px" transform="">8</text><text class="pin-number" x="1131.103999841545" y="240.83182067721998" style="font-family: sans-serif;" fill="rgb(169, 0, 0)" text-anchor="end" dominant-baseline="middle" font-size="6.6771192434549995px" transform="">D7_RX</text><line class="component-pin" x1="1135.555412670515" y1="231.92899501927997" x2="1152.470781420601" y2="231.92899501927997" stroke-width="0.890282565794px"/><g data-schematic-port-id="source_port_8"><circle class="component-pin" cx="1153.361063986395" cy="231.92899501927997" r="0.890282565794" stroke-width="0.890282565794px"/><rect x="1152.470781420601" y="231.03871245348597" width="1.780565131588" height="1.780565131588" opacity="0"/></g><text class="pin-number" x="1144.458238328455" y="231.03871245348597" style="font-family: sans-serif;" fill="rgb(169, 0, 0)" text-anchor="middle" dominant-baseline="auto" font-size="6.6771192434549995px" transform="">9</text><text class="pin-number" x="1131.103999841545" y="231.92899501927997" style="font-family: sans-serif;" fill="rgb(169, 0, 0)" text-anchor="end" dominant-baseline="middle" font-size="6.6771192434549995px" transform="">D8_SCK</text><line class="component-pin" x1="1135.555412670515" y1="223.02616936134" x2="1152.470781420601" y2="223.02616936134" stroke-width="0.890282565794px"/><g data-schematic-port-id="source_port_9"><circle class="component-pin" cx="1153.361063986395" cy="223.02616936134" r="0.890282565794" stroke-width="0.890282565794px"/><rect x="1152.470781420601" y="222.135886795546" width="1.780565131588" height="1.780565131588" opacity="0"/></g><text class="pin-number" x="1144.458238328455" y="222.135886795546" style="font-family: sans-serif;" fill="rgb(169, 0, 0)" text-anchor="middle" dominant-baseline="auto" font-size="6.6771192434549995px" transform="">10</text><text class="pin-number" x="1131.103999841545" y="223.02616936134" style="font-family: sans-serif;" fill="rgb(169, 0, 0)" text-anchor="end" dominant-baseline="middle" font-size="6.6771192434549995px" transform="">D9_MISO</text><line class="component-pin" x1="1135.555412670515" y1="214.1233437034" x2="1152.470781420601" y2="214.1233437034" stroke-width="0.890282565794px"/><g data-schematic-port-id="source_port_10"><circle class="component-pin" cx="1153.361063986395" cy="214.1233437034" r="0.890282565794" stroke-width="0.890282565794px"/><rect x="1152.470781420601" y="213.233061137606" width="1.780565131588" height="1.780565131588" opacity="0"/></g><text class="pin-number" x="1144.458238328455" y="213.233061137606" style="font-family: sans-serif;" fill="rgb(169, 0, 0)" text-anchor="middle" dominant-baseline="auto" font-size="6.6771192434549995px" transform="">11</text><text class="pin-number" x="1131.103999841545" y="214.1233437034" style="font-family: sans-serif;" fill="rgb(169, 0, 0)" text-anchor="end" dominant-baseline="middle" font-size="6.6771192434549995px" transform="">D10_MOSI</text><line class="component-pin" x1="1135.555412670515" y1="205.22051804545998" x2="1153.361063986395" y2="205.22051804545998" stroke-width="0.890282565794px"/><g data-schematic-port-id="source_port_11"><rect x="1152.470781420601" y="204.330235479666" width="1.780565131588" height="1.780565131588" opacity="0"/></g><text class="pin-number" x="1144.458238328455" y="204.330235479666" style="font-family: sans-serif;" fill="rgb(169, 0, 0)" text-anchor="middle" dominant-baseline="auto" font-size="6.6771192434549995px" transform="">12</text><text class="pin-number" x="1131.103999841545" y="205.22051804545998" style="font-family: sans-serif;" fill="rgb(169, 0, 0)" text-anchor="end" dominant-baseline="middle" font-size="6.6771192434549995px" transform="">V3_3</text><line class="component-pin" x1="1135.555412670515" y1="196.31769238752" x2="1153.361063986395" y2="196.31769238752" stroke-width="0.890282565794px"/><g data-schematic-port-id="source_port_12"><rect x="1152.470781420601" y="195.427409821726" width="1.780565131588" height="1.780565131588" opacity="0"/></g><text class="pin-number" x="1144.458238328455" y="195.427409821726" style="font-family: sans-serif;" fill="rgb(169, 0, 0)" text-anchor="middle" dominant-baseline="auto" font-size="6.6771192434549995px" transform="">13</text><text class="pin-number" x="1131.103999841545" y="196.31769238752" style="font-family: sans-serif;" fill="rgb(169, 0, 0)" text-anchor="end" dominant-baseline="middle" font-size="6.6771192434549995px" transform="">GND</text><line class="component-pin" x1="1135.555412670515" y1="187.41486672958" x2="1152.470781420601" y2="187.41486672958" stroke-width="0.890282565794px"/><g data-schematic-port-id="source_port_13"><circle class="component-pin" cx="1153.361063986395" cy="187.41486672958" r="0.890282565794" stroke-width="0.890282565794px"/><rect x="1152.470781420601" y="186.52458416378602" width="1.780565131588" height="1.780565131588" opacity="0"/></g><text class="pin-number" x="1144.458238328455" y="186.524584163786" style="font-family: sans-serif;" fill="rgb(169, 0, 0)" text-anchor="middle" dominant-baseline="auto" font-size="6.6771192434549995px" transform="">14</text><text class="pin-number" x="1131.103999841545" y="187.41486672958" style="font-family: sans-serif;" fill="rgb(169, 0, 0)" text-anchor="end" dominant-baseline="middle" font-size="6.6771192434549995px" transform="">V5</text></g><g data-circuit-json-type="schematic_component" data-schematic-component-id="schematic_component_1"><rect class="component chip" x="78.34486579014003" y="200.76910521649" width="71.22260526352005" height="26.708476973819984" stroke-width="0.890282565794px" fill="rgb(255, 255, 194)" stroke="rgb(132, 0, 0)"/><rect class="component-overlay" x="78.34486579014003" y="200.76910521649" width="71.22260526352005" height="26.708476973819984" fill="transparent"/><text x="78.34486579014003" y="233.26441886797096" fill="#006464" text-anchor="start" dominant-baseline="middle" font-family="sans-serif" font-size="8.012543092145998px" transform="rotate(0, 78.34486579014003, 233.26441886797096)">TYPE-C-31-M-12</text><text x="78.34486579014003" y="194.982268538829" fill="#006464" text-anchor="start" dominant-baseline="middle" font-family="sans-serif" font-size="8.012543092145998px" transform="rotate(0, 78.34486579014003, 194.982268538829)">J1</text><line class="component-pin" x1="149.56747105365997" y1="218.57475653236997" x2="167.37312236954" y2="218.57475653236997" stroke-width="0.890282565794px"/><g data-schematic-port-id="source_port_14"><rect x="166.482839803746" y="217.68447396657598" width="1.780565131588" height="1.780565131588" opacity="0"/></g><text class="pin-number" x="158.47029671160004" y="217.68447396657598" style="font-family: sans-serif;" fill="rgb(169, 0, 0)" text-anchor="middle" dominant-baseline="auto" font-size="6.6771192434549995px" transform="">1</text><text class="pin-number" x="145.11605822469" y="218.57475653236997" style="font-family: sans-serif;" fill="rgb(169, 0, 0)" text-anchor="end" dominant-baseline="middle" font-size="6.6771192434549995px" transform="">GND1</text><line class="component-pin" x1="149.56747105365997" y1="209.67193087443002" x2="167.37312236954" y2="209.67193087443002" stroke-width="0.890282565794px"/><g data-schematic-port-id="source_port_16"><rect x="166.482839803746" y="208.78164830863602" width="1.780565131588" height="1.780565131588" opacity="0"/></g><text class="pin-number" x="158.47029671160004" y="208.78164830863597" style="font-family: sans-serif;" fill="rgb(169, 0, 0)" text-anchor="middle" dominant-baseline="auto" font-size="6.6771192434549995px" transform="">3</text><text class="pin-number" x="145.11605822469" y="209.67193087443002" style="font-family: sans-serif;" fill="rgb(169, 0, 0)" text-anchor="end" dominant-baseline="middle" font-size="6.6771192434549995px" transform="">VBUS1</text></g><g data-circuit-json-type="schematic_component" data-schematic-component-id="schematic_component_2"><rect class="component-overlay" x="241.26657533044207" y="189.640573144065" width="12.018814638218998" height="48.96554111866999" fill="transparent"/><path d="M 247.49855329100006 189.640573144065 L 247.49855329100006 202.104529065181" stroke="rgb(132, 0, 0)" fill="none" stroke-width="0.890282565794px" stroke-linecap="round"/><path d="M 247.49855329100006 225.697017058722 L 247.49855329100006 238.606114262735" stroke="rgb(132, 0, 0)" fill="none" stroke-width="0.890282565794px" stroke-linecap="round"/><path d="M 253.28538996866106 214.1233437034 L 253.28538996866106 225.697017058722 L 241.26657533044207 225.697017058722 L 241.26657533044207 202.104529065181 L 253.28538996866106 202.104529065181 L 253.28538996866106 214.1233437034" stroke="rgb(132, 0, 0)" fill="none" stroke-width="0.890282565794px" stroke-linecap="round"/><text x="255.48685176317306" y="206.11080061125398" stroke="rgb(245, 241, 237)" stroke-width="0.890282565794px" paint-order="stroke" fill="rgb(15, 15, 15)" font-family="sans-serif" text-anchor="start" dominant-baseline="middle" font-size="8.012543092145998px">R1</text><text x="255.48685176317306" y="220.355321663958" fill="rgb(15, 15, 15)" font-family="sans-serif" text-anchor="start" dominant-baseline="middle" font-size="8.012543092145998px">56Ω</text></g><g data-circuit-json-type="schematic_component" data-schematic-component-id="schematic_component_3"><rect class="component-overlay" x="374.80896019954207" y="278.668829723465" width="12.018814638218942" height="48.96554111866999" fill="transparent"/><path d="M 381.04093816010004 278.668829723465 L 381.04093816010004 291.132785644581" stroke="rgb(132, 0, 0)" fill="none" stroke-width="0.890282565794px" stroke-linecap="round"/><path d="M 381.04093816010004 314.725273638122 L 381.04093816010004 327.634370842135" stroke="rgb(132, 0, 0)" fill="none" stroke-width="0.890282565794px" stroke-linecap="round"/><path d="M 386.827774837761 303.1516002828 L 386.827774837761 314.725273638122 L 374.80896019954207 314.725273638122 L 374.80896019954207 291.132785644581 L 386.827774837761 291.132785644581 L 386.827774837761 303.1516002828" stroke="rgb(132, 0, 0)" fill="none" stroke-width="0.890282565794px" stroke-linecap="round"/><text x="389.029236632273" y="295.139057190654" stroke="rgb(245, 241, 237)" stroke-width="0.890282565794px" paint-order="stroke" fill="rgb(15, 15, 15)" font-family="sans-serif" text-anchor="start" dominant-baseline="middle" font-size="8.012543092145998px">R2</text><text x="389.029236632273" y="309.383578243358" fill="rgb(15, 15, 15)" font-family="sans-serif" text-anchor="start" dominant-baseline="middle" font-size="8.012543092145998px">100kΩ</text></g><g data-circuit-json-type="schematic_component" data-schematic-component-id="schematic_component_4"><rect class="component-overlay" x="374.80896019954207" y="100.61231656466501" width="12.018814638218998" height="48.96554111866999" fill="transparent"/><path d="M 381.04093816010004 100.61231656466501 L 381.04093816010004 113.076272485781" stroke="rgb(132, 0, 0)" fill="none" stroke-width="0.890282565794px" stroke-linecap="round"/><path d="M 381.04093816010004 136.668760479322 L 381.04093816010004 149.577857683335" stroke="rgb(132, 0, 0)" fill="none" stroke-width="0.890282565794px" stroke-linecap="round"/><path d="M 386.82777483776107 125.095087124 L 386.82777483776107 136.668760479322 L 374.80896019954207 136.668760479322 L 374.80896019954207 113.076272485781 L 386.827774837761 113.076272485781 L 386.82777483776107 125.095087124" stroke="rgb(132, 0, 0)" fill="none" stroke-width="0.890282565794px" stroke-linecap="round"/><text x="389.029236632273" y="117.08254403185401" stroke="rgb(245, 241, 237)" stroke-width="0.890282565794px" paint-order="stroke" fill="rgb(15, 15, 15)" font-family="sans-serif" text-anchor="start" dominant-baseline="middle" font-size="8.012543092145998px">R3</text><text x="389.029236632273" y="131.327065084558" fill="rgb(15, 15, 15)" font-family="sans-serif" text-anchor="start" dominant-baseline="middle" font-size="8.012543092145998px">100kΩ</text></g><g data-circuit-json-type="schematic_component" data-schematic-component-id="schematic_component_5"><rect class="component-overlay" x="458.050380101281" y="189.640573144065" width="23.592487993541" height="48.96554111866999" fill="transparent"/><path d="M 470.0691947395 238.606114262735 L 470.0691947395 217.23933268367898" stroke="rgb(132, 0, 0)" fill="none" stroke-width="0.890282565794px" stroke-linecap="round"/><path d="M 470.0691947395 210.117072157327 L 470.0691947395 189.640573144065" stroke="rgb(132, 0, 0)" fill="none" stroke-width="0.890282565794px" stroke-linecap="round"/><path d="M 481.642868094822 217.23933268367898 L 458.050380101281 217.23933268367898" stroke="rgb(132, 0, 0)" fill="none" stroke-width="0.890282565794px" stroke-linecap="round"/><path d="M 481.642868094822 210.117072157327 L 458.050380101281 210.117072157327" stroke="rgb(132, 0, 0)" fill="none" stroke-width="0.890282565794px" stroke-linecap="round"/><text x="474.2980369270215" y="205.22051804545998" stroke="rgb(245, 241, 237)" stroke-width="0.890282565794px" paint-order="stroke" fill="rgb(15, 15, 15)" font-family="sans-serif" text-anchor="start" dominant-baseline="ideographic" font-size="8.012543092145998px">C2</text><text x="474.2980369270215" y="223.02616936133998" fill="rgb(15, 15, 15)" font-family="sans-serif" text-anchor="start" dominant-baseline="hanging" font-size="8.012543092145998px">1uF</text></g><g data-circuit-json-type="schematic_component" data-schematic-component-id="schematic_component_6"><rect class="component-overlay" x="623.642937338965" y="208.336507025739" width="48.96554111866999" height="12.018814638218998" fill="transparent"/><path d="M 623.642937338965 214.1233437034 L 636.106893260081 214.1233437034" stroke="rgb(132, 0, 0)" fill="none" stroke-width="0.890282565794px" stroke-linecap="round"/><path d="M 659.699381253622 214.1233437034 L 672.608478457635 214.1233437034" stroke="rgb(132, 0, 0)" fill="none" stroke-width="0.890282565794px" stroke-linecap="round"/><path d="M 648.1257078983 208.336507025739 L 659.699381253622 208.336507025739 L 659.699381253622 220.355321663958 L 636.106893260081 220.355321663958 L 636.106893260081 208.336507025739 L 648.1257078983 208.336507025739" stroke="rgb(132, 0, 0)" fill="none" stroke-width="0.890282565794px" stroke-linecap="round"/><text x="647.235425332506" y="206.135045231227" stroke="rgb(245, 241, 237)" stroke-width="0.890282565794px" paint-order="stroke" fill="rgb(15, 15, 15)" font-family="sans-serif" text-anchor="middle" dominant-baseline="ideographic" font-size="8.012543092145998px">R4</text><text x="647.235425332506" y="223.447066024264" fill="rgb(15, 15, 15)" font-family="sans-serif" text-anchor="middle" dominant-baseline="hanging" font-size="8.012543092145998px">1kΩ</text></g><g data-circuit-json-type="schematic_component" data-schematic-component-id="schematic_component_7"><rect class="component-overlay" x="725.135149839481" y="278.66882972346497" width="23.592487993541113" height="48.96554111866999" fill="transparent"/><path d="M 737.1539644777 327.63437084213496 L 737.1539644777 306.26758926307895" stroke="rgb(132, 0, 0)" fill="none" stroke-width="0.890282565794px" stroke-linecap="round"/><path d="M 737.1539644777 299.145328736727 L 737.1539644777 278.66882972346497" stroke="rgb(132, 0, 0)" fill="none" stroke-width="0.890282565794px" stroke-linecap="round"/><path d="M 748.7276378330221 306.26758926307895 L 725.135149839481 306.26758926307895" stroke="rgb(132, 0, 0)" fill="none" stroke-width="0.890282565794px" stroke-linecap="round"/><path d="M 748.7276378330221 299.145328736727 L 725.135149839481 299.145328736727" stroke="rgb(132, 0, 0)" fill="none" stroke-width="0.890282565794px" stroke-linecap="round"/><text x="741.3828066652216" y="294.24877462485995" stroke="rgb(245, 241, 237)" stroke-width="0.890282565794px" paint-order="stroke" fill="rgb(15, 15, 15)" font-family="sans-serif" text-anchor="start" dominant-baseline="ideographic" font-size="8.012543092145998px">C4</text><text x="741.3828066652216" y="312.05442594074" fill="rgb(15, 15, 15)" font-family="sans-serif" text-anchor="start" dominant-baseline="hanging" font-size="8.012543092145998px">100nF</text></g><g data-circuit-json-type="schematic_component" data-schematic-component-id="schematic_component_8"><rect class="component-overlay" x="801.699450497765" y="208.336507025739" width="48.96554111866999" height="12.018814638218998" fill="transparent"/><path d="M 801.699450497765 214.1233437034 L 814.1634064188811 214.1233437034" stroke="rgb(132, 0, 0)" fill="none" stroke-width="0.890282565794px" stroke-linecap="round"/><path d="M 837.755894412422 214.1233437034 L 850.664991616435 214.1233437034" stroke="rgb(132, 0, 0)" fill="none" stroke-width="0.890282565794px" stroke-linecap="round"/><path d="M 826.1822210571 208.336507025739 L 837.755894412422 208.336507025739 L 837.755894412422 220.355321663958 L 814.1634064188811 220.355321663958 L 814.1634064188811 208.336507025739 L 826.1822210571 208.336507025739" stroke="rgb(132, 0, 0)" fill="none" stroke-width="0.890282565794px" stroke-linecap="round"/><text x="825.291938491306" y="206.135045231227" stroke="rgb(245, 241, 237)" stroke-width="0.890282565794px" paint-order="stroke" fill="rgb(15, 15, 15)" font-family="sans-serif" text-anchor="middle" dominant-baseline="ideographic" font-size="8.012543092145998px">R5</text><text x="825.291938491306" y="223.44706602426396" fill="rgb(15, 15, 15)" font-family="sans-serif" text-anchor="middle" dominant-baseline="hanging" font-size="8.012543092145998px">1kΩ</text></g><g data-circuit-json-type="schematic_component" data-schematic-component-id="schematic_component_9"><rect class="component-overlay" x="903.1916629982809" y="278.66882972346497" width="23.592487993541113" height="48.96554111866999" fill="transparent"/><path d="M 915.2104776365 327.63437084213496 L 915.2104776365 306.26758926307895" stroke="rgb(132, 0, 0)" fill="none" stroke-width="0.890282565794px" stroke-linecap="round"/><path d="M 915.2104776365 299.145328736727 L 915.2104776365 278.66882972346497" stroke="rgb(132, 0, 0)" fill="none" stroke-width="0.890282565794px" stroke-linecap="round"/><path d="M 926.784150991822 306.26758926307895 L 903.1916629982809 306.26758926307895" stroke="rgb(132, 0, 0)" fill="none" stroke-width="0.890282565794px" stroke-linecap="round"/><path d="M 926.784150991822 299.145328736727 L 903.1916629982809 299.145328736727" stroke="rgb(132, 0, 0)" fill="none" stroke-width="0.890282565794px" stroke-linecap="round"/><text x="919.4393198240215" y="294.24877462485995" stroke="rgb(245, 241, 237)" stroke-width="0.890282565794px" paint-order="stroke" fill="rgb(15, 15, 15)" font-family="sans-serif" text-anchor="start" dominant-baseline="ideographic" font-size="8.012543092145998px">C5</text><text x="919.4393198240215" y="312.05442594074" fill="rgb(15, 15, 15)" font-family="sans-serif" text-anchor="start" dominant-baseline="hanging" font-size="8.012543092145998px">100nF</text></g><g data-circuit-json-type="schematic_component" data-schematic-component-id="schematic_component_10"><rect class="component-overlay" x="267.529911021365" y="388.618726599024" width="48.96554111866999" height="4.896554111866976" fill="transparent"/><path d="M 283.10985592276 393.070139427994 L 283.10985592276 393.070139427994 L 282.664714639863 392.624998145097 L 282.664714639863 392.624998145097 L 282.664714639863 392.1798568622 L 282.664714639863 392.1798568622 L 282.664714639863 392.1798568622 L 282.219573356966 391.734715579303 L 282.219573356966 391.734715579303 L 282.219573356966 391.289574296406 L 282.219573356966 391.289574296406 L 281.774432074069 390.844433013509 L 281.774432074069 390.844433013509 L 281.774432074069 390.844433013509 L 281.774432074069 390.399291730612 L 281.329290791172 390.399291730612 L 281.329290791172 390.399291730612 L 281.329290791172 389.954150447715 L 281.329290791172 389.954150447715 L 280.884149508275 389.954150447715 L 280.884149508275 389.509009164818 L 280.884149508275 389.509009164818 L 280.884149508275 389.509009164818 L 280.439008225378 389.509009164818 L 280.439008225378 389.509009164818 L 280.439008225378 389.063867881921 L 280.439008225378 389.063867881921 L 279.993866942481 389.063867881921 L 279.993866942481 389.063867881921 L 279.993866942481 389.063867881921 L 279.993866942481 389.063867881921 L 279.548725659584 389.063867881921 L 279.548725659584 389.063867881921 L 279.548725659584 389.063867881921 L 279.548725659584 389.063867881921 L 279.103584376687 389.063867881921 L 279.103584376687 388.618726599024 L 279.103584376687 388.618726599024 L 279.103584376687 388.618726599024 L 278.65844309379 388.618726599024 L 278.65844309379 388.618726599024 L 278.65844309379 388.618726599024 L 278.65844309379 388.618726599024 L 278.21330181089303 388.618726599024 L 278.21330181089303 388.618726599024 L 278.21330181089303 389.063867881921 L 278.21330181089303 389.063867881921 L 277.76816052799603 389.063867881921 L 277.76816052799603 389.063867881921 L 277.76816052799603 389.063867881921 L 277.76816052799603 389.063867881921 L 277.32301924509903 389.063867881921 L 277.32301924509903 389.063867881921 L 277.32301924509903 389.063867881921 L 277.32301924509903 389.063867881921 L 276.87787796220204 389.063867881921 L 276.87787796220204 389.509009164818 L 276.87787796220204 389.509009164818 L 276.87787796220204 389.509009164818 L 276.43273667930504 389.509009164818 L 276.43273667930504 389.509009164818 L 276.43273667930504 389.954150447715 L 276.43273667930504 389.954150447715 L 275.987595396408 389.954150447715 L 275.987595396408 390.399291730612 L 275.987595396408 390.399291730612 L 275.987595396408 390.399291730612 L 275.542454113511 390.844433013509 L 275.542454113511 390.844433013509 L 275.542454113511 390.844433013509 L 275.542454113511 391.289574296406 L 275.097312830614 391.289574296406 L 275.097312830614 391.734715579303 L 275.097312830614 391.734715579303 L 275.097312830614 392.1798568622 L 274.652171547717 392.1798568622 L 274.652171547717 392.1798568622 L 274.652171547717 392.624998145097 L 274.652171547717 392.624998145097 L 274.20703026482 393.070139427994 L 274.20703026482 393.070139427994" stroke="rgb(132, 0, 0)" fill="none" stroke-width="0.890282565794px" stroke-linecap="round"/><path d="M 292.0126815807 393.070139427994 L 292.0126815807 393.070139427994 L 291.567540297803 392.624998145097 L 291.567540297803 392.624998145097 L 291.567540297803 392.1798568622 L 291.567540297803 392.1798568622 L 291.122399014906 392.1798568622 L 291.122399014906 391.734715579303 L 291.122399014906 391.734715579303 L 291.122399014906 391.289574296406 L 290.677257732009 391.289574296406 L 290.677257732009 390.844433013509 L 290.677257732009 390.844433013509 L 290.677257732009 390.844433013509 L 290.232116449112 390.399291730612 L 290.232116449112 390.399291730612 L 290.232116449112 390.399291730612 L 290.232116449112 389.954150447715 L 289.78697516621503 389.954150447715 L 289.78697516621503 389.954150447715 L 289.78697516621503 389.509009164818 L 289.78697516621503 389.509009164818 L 289.34183388331803 389.509009164818 L 289.34183388331803 389.509009164818 L 289.34183388331803 389.509009164818 L 289.34183388331803 389.063867881921 L 288.89669260042103 389.063867881921 L 288.89669260042103 389.063867881921 L 288.89669260042103 389.063867881921 L 288.89669260042103 389.063867881921 L 288.45155131752404 389.063867881921 L 288.45155131752404 389.063867881921 L 288.45155131752404 389.063867881921 L 288.45155131752404 389.063867881921 L 288.00641003462704 389.063867881921 L 288.00641003462704 389.063867881921 L 288.00641003462704 388.618726599024 L 288.00641003462704 388.618726599024 L 287.56126875173004 388.618726599024 L 287.56126875173004 388.618726599024 L 287.56126875173004 388.618726599024 L 287.56126875173004 388.618726599024 L 287.11612746883304 388.618726599024 L 287.11612746883304 388.618726599024 L 287.11612746883304 388.618726599024 L 287.11612746883304 389.063867881921 L 286.67098618593604 389.063867881921 L 286.67098618593604 389.063867881921 L 286.67098618593604 389.063867881921 L 286.67098618593604 389.063867881921 L 286.225844903039 389.063867881921 L 286.225844903039 389.063867881921 L 286.225844903039 389.063867881921 L 286.225844903039 389.063867881921 L 285.780703620142 389.063867881921 L 285.780703620142 389.063867881921 L 285.780703620142 389.509009164818 L 285.780703620142 389.509009164818 L 285.335562337245 389.509009164818 L 285.335562337245 389.509009164818 L 285.335562337245 389.509009164818 L 285.335562337245 389.954150447715 L 284.890421054348 389.954150447715 L 284.890421054348 389.954150447715 L 284.890421054348 390.399291730612 L 284.890421054348 390.399291730612 L 284.445279771451 390.399291730612 L 284.445279771451 390.844433013509 L 284.445279771451 390.844433013509 L 284.445279771451 390.844433013509 L 284.000138488554 391.289574296406 L 284.000138488554 391.289574296406 L 284.000138488554 391.734715579303 L 284.000138488554 391.734715579303 L 283.554997205657 392.1798568622 L 283.554997205657 392.1798568622 L 283.554997205657 392.1798568622 L 283.554997205657 392.624998145097 L 283.10985592276 392.624998145097 L 283.10985592276 393.070139427994 L 283.10985592276 393.070139427994" stroke="rgb(132, 0, 0)" fill="none" stroke-width="0.890282565794px" stroke-linecap="round"/><path d="M 300.91550723864003 393.070139427994 L 300.91550723864003 393.070139427994 L 300.47036595574303 392.624998145097 L 300.47036595574303 392.624998145097 L 300.47036595574303 392.1798568622 L 300.47036595574303 392.1798568622 L 300.02522467284604 392.1798568622 L 300.02522467284604 391.734715579303 L 300.02522467284604 391.734715579303 L 300.02522467284604 391.289574296406 L 299.58008338994904 391.289574296406 L 299.58008338994904 390.844433013509 L 299.58008338994904 390.844433013509 L 299.58008338994904 390.844433013509 L 299.13494210705204 390.399291730612 L 299.13494210705204 390.399291730612 L 299.13494210705204 390.399291730612 L 299.13494210705204 389.954150447715 L 298.68980082415504 389.954150447715 L 298.68980082415504 389.954150447715 L 298.68980082415504 389.509009164818 L 298.68980082415504 389.509009164818 L 298.24465954125805 389.509009164818 L 298.24465954125805 389.509009164818 L 298.24465954125805 389.509009164818 L 298.24465954125805 389.063867881921 L 297.79951825836105 389.063867881921 L 297.79951825836105 389.063867881921 L 297.79951825836105 389.063867881921 L 297.79951825836105 389.063867881921 L 297.354376975464 389.063867881921 L 297.354376975464 389.063867881921 L 297.354376975464 389.063867881921 L 297.354376975464 389.063867881921 L 296.909235692567 389.063867881921 L 296.909235692567 389.063867881921 L 296.909235692567 388.618726599024 L 296.909235692567 388.618726599024 L 296.46409440967 388.618726599024 L 296.46409440967 388.618726599024 L 296.46409440967 388.618726599024 L 296.46409440967 388.618726599024 L 296.018953126773 388.618726599024 L 296.018953126773 388.618726599024 L 296.018953126773 388.618726599024 L 296.018953126773 389.063867881921 L 295.573811843876 389.063867881921 L 295.573811843876 389.063867881921 L 295.573811843876 389.063867881921 L 295.573811843876 389.063867881921 L 295.128670560979 389.063867881921 L 295.128670560979 389.063867881921 L 295.128670560979 389.063867881921 L 295.128670560979 389.063867881921 L 294.683529278082 389.063867881921 L 294.683529278082 389.063867881921 L 294.683529278082 389.509009164818 L 294.683529278082 389.509009164818 L 294.238387995185 389.509009164818 L 294.238387995185 389.509009164818 L 294.238387995185 389.509009164818 L 294.238387995185 389.954150447715 L 293.793246712288 389.954150447715 L 293.793246712288 389.954150447715 L 293.793246712288 390.399291730612 L 293.793246712288 390.399291730612 L 293.348105429391 390.399291730612 L 293.348105429391 390.844433013509 L 293.348105429391 390.844433013509 L 293.348105429391 390.844433013509 L 292.902964146494 391.289574296406 L 292.902964146494 391.289574296406 L 292.902964146494 391.734715579303 L 292.902964146494 391.734715579303 L 292.457822863597 392.1798568622 L 292.457822863597 392.1798568622 L 292.457822863597 392.1798568622 L 292.457822863597 392.624998145097 L 292.0126815807 392.624998145097 L 292.0126815807 393.070139427994 L 292.0126815807 393.070139427994" stroke="rgb(132, 0, 0)" fill="none" stroke-width="0.890282565794px" stroke-linecap="round"/><path d="M 309.81833289658005 393.070139427994 L 309.37319161368305 393.070139427994 L 309.37319161368305 392.624998145097 L 309.37319161368305 392.624998145097 L 309.37319161368305 392.1798568622 L 309.37319161368305 392.1798568622 L 308.92805033078605 392.1798568622 L 308.92805033078605 391.734715579303 L 308.92805033078605 391.734715579303 L 308.92805033078605 391.289574296406 L 308.48290904788905 391.289574296406 L 308.48290904788905 390.844433013509 L 308.48290904788905 390.844433013509 L 308.48290904788905 390.844433013509 L 308.03776776499205 390.399291730612 L 308.03776776499205 390.399291730612 L 308.03776776499205 390.399291730612 L 308.03776776499205 389.954150447715 L 307.592626482095 389.954150447715 L 307.592626482095 389.954150447715 L 307.592626482095 389.509009164818 L 307.592626482095 389.509009164818 L 307.147485199198 389.509009164818 L 307.147485199198 389.509009164818 L 307.147485199198 389.509009164818 L 307.147485199198 389.063867881921 L 306.702343916301 389.063867881921 L 306.702343916301 389.063867881921 L 306.702343916301 389.063867881921 L 306.702343916301 389.063867881921 L 306.257202633404 389.063867881921 L 306.257202633404 389.063867881921 L 306.257202633404 389.063867881921 L 306.257202633404 389.063867881921 L 305.812061350507 389.063867881921 L 305.812061350507 389.063867881921 L 305.812061350507 388.618726599024 L 305.812061350507 388.618726599024 L 305.36692006761 388.618726599024 L 305.36692006761 388.618726599024 L 305.36692006761 388.618726599024 L 305.36692006761 388.618726599024 L 304.921778784713 388.618726599024 L 304.921778784713 388.618726599024 L 304.921778784713 388.618726599024 L 304.921778784713 389.063867881921 L 304.476637501816 389.063867881921 L 304.476637501816 389.063867881921 L 304.476637501816 389.063867881921 L 304.476637501816 389.063867881921 L 304.031496218919 389.063867881921 L 304.031496218919 389.063867881921 L 304.031496218919 389.063867881921 L 304.031496218919 389.063867881921 L 303.586354936022 389.063867881921 L 303.586354936022 389.063867881921 L 303.586354936022 389.509009164818 L 303.586354936022 389.509009164818 L 303.141213653125 389.509009164818 L 303.141213653125 389.509009164818 L 303.141213653125 389.509009164818 L 303.141213653125 389.954150447715 L 302.696072370228 389.954150447715 L 302.696072370228 389.954150447715 L 302.696072370228 390.399291730612 L 302.696072370228 390.399291730612 L 302.250931087331 390.399291730612 L 302.250931087331 390.844433013509 L 302.250931087331 390.844433013509 L 302.250931087331 390.844433013509 L 301.805789804434 391.289574296406 L 301.805789804434 391.289574296406 L 301.805789804434 391.734715579303 L 301.805789804434 391.734715579303 L 301.36064852153703 392.1798568622 L 301.36064852153703 392.1798568622 L 301.36064852153703 392.1798568622 L 301.36064852153703 392.624998145097 L 300.91550723864003 392.624998145097 L 300.91550723864003 393.070139427994 L 300.91550723864003 393.070139427994" stroke="rgb(132, 0, 0)" fill="none" stroke-width="0.890282565794px" stroke-linecap="round"/><path d="M 274.20703026482 393.070139427994 L 267.529911021365 393.070139427994" stroke="rgb(132, 0, 0)" fill="none" stroke-width="0.890282565794px" stroke-linecap="round"/><path d="M 316.495452140035 393.515280710891 L 309.81833289658005 393.515280710891" stroke="rgb(132, 0, 0)" fill="none" stroke-width="0.890282565794px" stroke-linecap="round"/><text x="292.0126815807" y="381.941607355569" stroke="rgb(245, 241, 237)" stroke-width="0.890282565794px" paint-order="stroke" fill="rgb(15, 15, 15)" font-family="sans-serif" text-anchor="middle" dominant-baseline="ideographic" font-size="8.012543092145998px">FB1</text><text x="292.0126815807" y="402.418106368831" fill="rgb(15, 15, 15)" font-family="sans-serif" text-anchor="middle" dominant-baseline="hanging" font-size="8.012543092145998px">600MH</text></g><g data-circuit-json-type="schematic_component" data-schematic-component-id="schematic_component_11"><rect class="component-overlay" x="412.20082796289" y="459.17361993819844" width="25.37305312512899" height="44.06898700680301" fill="transparent"/><path d="M 425.5550664498 459.17361993819844 L 425.5550664498 479.20497766856346" stroke="rgb(132, 0, 0)" fill="none" stroke-width="0.890282565794px" stroke-linecap="round"/><path d="M 425.5550664498 483.21124921463644 L 425.5550664498 503.24260694500146" stroke="rgb(132, 0, 0)" fill="none" stroke-width="0.890282565794px" stroke-linecap="round"/><path d="M 413.981393094478 479.20497766856346 L 437.573881088019 479.20497766856346" stroke="rgb(132, 0, 0)" fill="none" stroke-width="0.890282565794px" stroke-linecap="round"/><path d="M 437.128739805122 485.4369556291214 L 437.128739805122 485.4369556291214 L 437.128739805122 485.4369556291214 L 437.128739805122 485.4369556291214 L 437.128739805122 485.4369556291214 L 437.128739805122 485.4369556291214 L 437.128739805122 485.4369556291214 L 437.128739805122 485.4369556291214 L 437.128739805122 485.4369556291214 L 436.683598522225 485.4369556291214 L 436.683598522225 485.4369556291214 L 436.683598522225 485.4369556291214 L 436.683598522225 485.4369556291214 L 436.683598522225 484.99181434622443 L 436.683598522225 484.99181434622443 L 436.683598522225 484.99181434622443 L 436.683598522225 484.99181434622443 L 436.238457239328 484.99181434622443 L 436.238457239328 484.99181434622443 L 436.238457239328 484.99181434622443 L 436.238457239328 484.99181434622443 L 436.238457239328 484.99181434622443 L 436.238457239328 484.99181434622443 L 436.238457239328 484.99181434622443 L 436.238457239328 484.99181434622443 L 435.793315956431 484.99181434622443 L 435.793315956431 484.99181434622443 L 435.793315956431 484.99181434622443 L 435.793315956431 484.54667306332743 L 435.793315956431 484.54667306332743 L 435.793315956431 484.54667306332743 L 435.793315956431 484.54667306332743 L 435.793315956431 484.54667306332743 L 435.348174673534 484.54667306332743 L 435.348174673534 484.54667306332743 L 435.348174673534 484.54667306332743 L 435.348174673534 484.54667306332743 L 435.348174673534 484.54667306332743 L 435.348174673534 484.54667306332743 L 435.348174673534 484.54667306332743 L 435.348174673534 484.54667306332743 L 434.903033390637 484.54667306332743 L 434.903033390637 484.54667306332743 L 434.903033390637 484.54667306332743 L 434.903033390637 484.54667306332743 L 434.903033390637 484.10153178043043 L 434.903033390637 484.10153178043043 L 434.903033390637 484.10153178043043 L 434.45789210774 484.10153178043043 L 434.45789210774 484.10153178043043 L 434.45789210774 484.10153178043043 L 434.45789210774 484.10153178043043 L 434.45789210774 484.10153178043043 L 434.45789210774 484.10153178043043 L 434.45789210774 484.10153178043043 L 434.45789210774 484.10153178043043 L 434.012750824843 484.10153178043043 L 434.012750824843 484.10153178043043 L 434.012750824843 484.10153178043043 L 434.012750824843 484.10153178043043 L 434.012750824843 484.10153178043043 L 434.012750824843 484.10153178043043 L 434.012750824843 484.10153178043043 L 434.012750824843 484.10153178043043 L 433.567609541946 483.65639049753344 L 433.567609541946 483.65639049753344 L 433.567609541946 483.65639049753344 L 433.567609541946 483.65639049753344 L 433.567609541946 483.65639049753344 L 433.567609541946 483.65639049753344 L 433.567609541946 483.65639049753344 L 433.567609541946 483.65639049753344 L 433.12246825904896 483.65639049753344 L 433.12246825904896 483.65639049753344 L 433.12246825904896 483.65639049753344 L 433.12246825904896 483.65639049753344 L 433.12246825904896 483.65639049753344 L 433.12246825904896 483.65639049753344 L 433.12246825904896 483.65639049753344 L 432.67732697615196 483.65639049753344 L 432.67732697615196 483.65639049753344 L 432.67732697615196 483.65639049753344 L 432.67732697615196 483.65639049753344 L 432.67732697615196 483.65639049753344 L 432.67732697615196 483.65639049753344 L 432.67732697615196 483.65639049753344 L 432.67732697615196 483.21124921463644 L 432.23218569325496 483.21124921463644 L 432.23218569325496 483.21124921463644 L 432.23218569325496 483.21124921463644 L 432.23218569325496 483.21124921463644 L 432.23218569325496 483.21124921463644 L 432.23218569325496 483.21124921463644 L 432.23218569325496 483.21124921463644 L 432.23218569325496 483.21124921463644 L 431.78704441035796 483.21124921463644 L 431.78704441035796 483.21124921463644 L 431.78704441035796 483.21124921463644 L 431.78704441035796 483.21124921463644 L 431.78704441035796 483.21124921463644 L 431.78704441035796 483.21124921463644 L 431.78704441035796 483.21124921463644 L 431.78704441035796 483.21124921463644 L 431.34190312746097 483.21124921463644 L 431.34190312746097 483.21124921463644 L 431.34190312746097 483.21124921463644 L 431.34190312746097 483.21124921463644 L 431.34190312746097 483.21124921463644 L 431.34190312746097 483.21124921463644 L 430.89676184456397 483.21124921463644 L 430.89676184456397 483.21124921463644 L 430.89676184456397 483.21124921463644 L 430.89676184456397 483.21124921463644 L 430.89676184456397 483.21124921463644 L 430.89676184456397 483.21124921463644 L 430.45162056166697 482.76610793173944 L 430.45162056166697 482.76610793173944 L 430.45162056166697 482.76610793173944 L 430.45162056166697 482.76610793173944 L 430.45162056166697 482.76610793173944 L 430.45162056166697 482.76610793173944 L 430.00647927877 482.76610793173944 L 430.00647927877 482.76610793173944 L 430.00647927877 482.76610793173944 L 430.00647927877 482.76610793173944 L 430.00647927877 482.76610793173944 L 430.00647927877 482.76610793173944 L 429.561337995873 482.76610793173944 L 429.561337995873 482.76610793173944 L 429.561337995873 482.76610793173944 L 429.561337995873 482.76610793173944 L 429.561337995873 482.76610793173944 L 429.561337995873 482.76610793173944 L 429.116196712976 482.76610793173944 L 429.116196712976 482.76610793173944 L 429.116196712976 482.76610793173944 L 429.116196712976 482.76610793173944 L 429.116196712976 482.76610793173944 L 428.671055430079 482.76610793173944 L 428.671055430079 482.76610793173944 L 428.671055430079 482.76610793173944 L 428.671055430079 482.76610793173944 L 428.671055430079 482.76610793173944 L 428.671055430079 482.76610793173944 L 428.225914147182 482.76610793173944 L 428.225914147182 482.76610793173944 L 428.225914147182 482.76610793173944 L 428.225914147182 482.76610793173944 L 428.225914147182 482.76610793173944 L 428.225914147182 482.76610793173944 L 427.780772864285 482.76610793173944 L 427.780772864285 482.76610793173944 L 427.780772864285 482.76610793173944 L 427.780772864285 482.76610793173944 L 427.780772864285 482.76610793173944 L 427.780772864285 482.76610793173944 L 427.335631581388 482.76610793173944 L 427.335631581388 482.76610793173944 L 427.335631581388 482.76610793173944 L 427.335631581388 482.76610793173944 L 427.335631581388 482.76610793173944 L 427.335631581388 482.76610793173944 L 426.890490298491 482.76610793173944 L 426.890490298491 482.76610793173944 L 426.890490298491 482.76610793173944 L 426.890490298491 482.76610793173944 L 426.890490298491 482.76610793173944 L 426.445349015594 482.76610793173944 L 426.445349015594 482.76610793173944 L 426.445349015594 482.76610793173944 L 426.445349015594 482.76610793173944 L 426.445349015594 482.76610793173944 L 426.445349015594 482.76610793173944 L 426.000207732697 482.76610793173944 L 426.000207732697 482.32096664884244 L 426.000207732697 482.32096664884244 L 426.000207732697 482.32096664884244 L 426.000207732697 482.32096664884244 L 426.000207732697 482.32096664884244 L 425.5550664498 482.76610793173944 L 425.5550664498 482.76610793173944 L 425.5550664498 482.76610793173944 L 425.5550664498 482.76610793173944 L 425.5550664498 482.76610793173944 L 425.5550664498 482.76610793173944 L 425.109925166903 482.76610793173944 L 425.109925166903 482.76610793173944 L 425.109925166903 482.76610793173944 L 425.109925166903 482.76610793173944 L 425.109925166903 482.76610793173944 L 425.109925166903 482.76610793173944 L 424.664783884006 482.76610793173944 L 424.664783884006 482.76610793173944 L 424.664783884006 482.76610793173944 L 424.664783884006 482.76610793173944 L 424.664783884006 482.76610793173944 L 424.219642601109 482.76610793173944 L 424.219642601109 482.76610793173944 L 424.219642601109 482.76610793173944 L 424.219642601109 482.76610793173944 L 424.219642601109 482.76610793173944 L 424.219642601109 482.76610793173944 L 423.774501318212 482.76610793173944 L 423.774501318212 482.76610793173944 L 423.774501318212 482.76610793173944 L 423.774501318212 482.76610793173944 L 423.774501318212 482.76610793173944 L 423.774501318212 482.76610793173944 L 423.774501318212 482.76610793173944 L 423.774501318212 482.76610793173944 L 423.329360035315 482.76610793173944 L 423.329360035315 482.76610793173944 L 423.329360035315 482.76610793173944 L 423.329360035315 482.76610793173944 L 423.329360035315 482.76610793173944 L 423.329360035315 482.76610793173944 L 423.329360035315 482.76610793173944 L 422.884218752418 482.76610793173944 L 422.884218752418 482.76610793173944 L 422.884218752418 482.76610793173944 L 422.884218752418 482.76610793173944 L 422.884218752418 482.76610793173944 L 422.884218752418 482.76610793173944 L 422.439077469521 482.76610793173944 L 422.439077469521 482.76610793173944 L 422.439077469521 482.76610793173944 L 422.439077469521 482.76610793173944 L 422.439077469521 482.76610793173944 L 422.439077469521 482.76610793173944 L 422.439077469521 482.76610793173944 L 421.993936186624 482.76610793173944 L 421.993936186624 482.76610793173944 L 421.993936186624 482.76610793173944 L 421.993936186624 482.76610793173944 L 421.993936186624 482.76610793173944 L 421.993936186624 482.76610793173944 L 421.993936186624 482.76610793173944 L 421.54879490372696 482.76610793173944 L 421.54879490372696 482.76610793173944 L 421.54879490372696 482.76610793173944 L 421.54879490372696 482.76610793173944 L 421.54879490372696 482.76610793173944 L 421.54879490372696 482.76610793173944 L 421.54879490372696 482.76610793173944 L 421.10365362082996 482.76610793173944 L 421.10365362082996 482.76610793173944 L 421.10365362082996 482.76610793173944 L 421.10365362082996 482.76610793173944 L 421.10365362082996 483.21124921463644 L 421.10365362082996 483.21124921463644 L 421.10365362082996 483.21124921463644 L 420.65851233793296 483.21124921463644 L 420.65851233793296 483.21124921463644 L 420.65851233793296 483.21124921463644 L 420.65851233793296 483.21124921463644 L 420.65851233793296 483.21124921463644 L 420.65851233793296 483.21124921463644 L 420.21337105503596 483.21124921463644 L 420.21337105503596 483.21124921463644 L 420.21337105503596 483.21124921463644 L 420.21337105503596 483.21124921463644 L 420.21337105503596 483.21124921463644 L 420.21337105503596 483.21124921463644 L 420.21337105503596 483.21124921463644 L 419.76822977213897 483.21124921463644 L 419.76822977213897 483.21124921463644 L 419.76822977213897 483.21124921463644 L 419.76822977213897 483.21124921463644 L 419.76822977213897 483.21124921463644 L 419.76822977213897 483.21124921463644 L 419.76822977213897 483.21124921463644 L 419.32308848924197 483.21124921463644 L 419.32308848924197 483.21124921463644 L 419.32308848924197 483.21124921463644 L 419.32308848924197 483.21124921463644 L 419.32308848924197 483.21124921463644 L 419.32308848924197 483.21124921463644 L 419.32308848924197 483.21124921463644 L 418.87794720634497 483.21124921463644 L 418.87794720634497 483.21124921463644 L 418.87794720634497 483.65639049753344 L 418.87794720634497 483.65639049753344 L 418.87794720634497 483.65639049753344 L 418.87794720634497 483.65639049753344 L 418.87794720634497 483.65639049753344 L 418.432805923448 483.65639049753344 L 418.432805923448 483.65639049753344 L 418.432805923448 483.65639049753344 L 418.432805923448 483.65639049753344 L 418.432805923448 483.65639049753344 L 418.432805923448 483.65639049753344 L 418.432805923448 483.65639049753344 L 417.987664640551 483.65639049753344 L 417.987664640551 483.65639049753344 L 417.987664640551 483.65639049753344 L 417.987664640551 483.65639049753344 L 417.987664640551 483.65639049753344 L 417.987664640551 483.65639049753344 L 417.987664640551 483.65639049753344 L 417.542523357654 483.65639049753344 L 417.542523357654 483.65639049753344 L 417.542523357654 483.65639049753344 L 417.542523357654 483.65639049753344 L 417.542523357654 483.65639049753344 L 417.542523357654 483.65639049753344 L 417.542523357654 484.10153178043043 L 417.542523357654 484.10153178043043 L 417.542523357654 484.10153178043043 L 417.097382074757 484.10153178043043 L 417.097382074757 484.10153178043043 L 417.097382074757 484.10153178043043 L 417.097382074757 484.10153178043043 L 417.097382074757 484.10153178043043 L 417.097382074757 484.10153178043043 L 417.097382074757 484.10153178043043 L 417.097382074757 484.10153178043043 L 417.097382074757 484.10153178043043 L 417.097382074757 484.10153178043043 L 417.097382074757 484.10153178043043 L 417.097382074757 484.10153178043043 L 417.097382074757 484.10153178043043 L 416.65224079186 484.10153178043043 L 416.65224079186 484.10153178043043 L 416.65224079186 484.10153178043043 L 416.65224079186 484.10153178043043 L 416.65224079186 484.10153178043043 L 416.65224079186 484.10153178043043 L 416.65224079186 484.10153178043043 L 416.65224079186 484.10153178043043 L 416.65224079186 484.10153178043043 L 416.65224079186 484.10153178043043 L 416.65224079186 484.10153178043043 L 416.65224079186 484.10153178043043 L 416.207099508963 484.10153178043043 L 416.207099508963 484.10153178043043 L 416.207099508963 484.10153178043043 L 416.207099508963 484.10153178043043 L 416.207099508963 484.54667306332743 L 416.207099508963 484.54667306332743 L 416.207099508963 484.54667306332743 L 416.207099508963 484.54667306332743 L 416.207099508963 484.54667306332743 L 416.207099508963 484.54667306332743 L 416.207099508963 484.54667306332743 L 416.207099508963 484.54667306332743 L 415.761958226066 484.54667306332743 L 415.761958226066 484.54667306332743 L 415.761958226066 484.54667306332743 L 415.761958226066 484.54667306332743 L 415.761958226066 484.54667306332743 L 415.761958226066 484.54667306332743 L 415.761958226066 484.54667306332743 L 415.761958226066 484.54667306332743 L 415.761958226066 484.54667306332743 L 415.761958226066 484.54667306332743 L 415.761958226066 484.54667306332743 L 415.761958226066 484.54667306332743 L 415.316816943169 484.54667306332743 L 415.316816943169 484.54667306332743 L 415.316816943169 484.54667306332743 L 415.316816943169 484.54667306332743 L 415.316816943169 484.54667306332743 L 415.316816943169 484.54667306332743 L 415.316816943169 484.99181434622443 L 415.316816943169 484.99181434622443 L 415.316816943169 484.99181434622443 L 415.316816943169 484.99181434622443 L 415.316816943169 484.99181434622443 L 415.316816943169 484.99181434622443 L 415.316816943169 484.99181434622443 L 414.871675660272 484.99181434622443 L 414.871675660272 484.99181434622443 L 414.871675660272 484.99181434622443 L 414.871675660272 484.99181434622443 L 414.871675660272 484.99181434622443 L 414.871675660272 484.99181434622443 L 414.871675660272 484.99181434622443 L 414.871675660272 484.99181434622443 L 414.871675660272 484.99181434622443 L 414.871675660272 484.99181434622443 L 414.871675660272 484.99181434622443 L 414.871675660272 484.99181434622443 L 414.871675660272 484.99181434622443 L 414.426534377375 484.99181434622443 L 414.426534377375 484.99181434622443 L 414.426534377375 484.99181434622443 L 414.426534377375 484.99181434622443 L 414.426534377375 485.4369556291214 L 414.426534377375 485.4369556291214 L 414.426534377375 485.4369556291214 L 414.426534377375 485.4369556291214 L 414.426534377375 485.4369556291214 L 414.426534377375 485.4369556291214 L 414.426534377375 485.4369556291214 L 414.426534377375 485.4369556291214 L 414.426534377375 485.4369556291214 L 413.981393094478 485.4369556291214 L 413.981393094478 485.4369556291214 L 413.981393094478 485.4369556291214 L 413.981393094478 485.4369556291214 L 413.981393094478 485.4369556291214 L 413.981393094478 485.4369556291214 L 413.981393094478 485.4369556291214 L 413.981393094478 485.4369556291214 L 413.981393094478 485.4369556291214" stroke="rgb(132, 0, 0)" fill="none" stroke-width="0.890282565794px" stroke-linecap="round"/><path d="M 415.316816943169 467.63130431324146 L 415.316816943169 473.8632822737994 L 415.316816943169 473.8632822737994 L 415.316816943169 467.63130431324146" stroke="rgb(132, 0, 0)" fill="none" stroke-width="0.890282565794px" stroke-linecap="round"/><path d="M 412.20082796289 470.30215201062344 L 418.432805923448 470.30215201062344 L 418.432805923448 470.74729329352044 L 412.20082796289 470.74729329352044" stroke="rgb(132, 0, 0)" fill="none" stroke-width="0.890282565794px" stroke-linecap="round"/><text x="435.76907133645796" y="474.7535648395934" stroke="rgb(245, 241, 237)" stroke-width="0.890282565794px" paint-order="stroke" fill="rgb(15, 15, 15)" font-family="sans-serif" text-anchor="start" dominant-baseline="ideographic" font-size="8.012543092145998px">C6</text><text x="435.76907133645796" y="488.1078033265035" fill="rgb(15, 15, 15)" font-family="sans-serif" text-anchor="start" dominant-baseline="hanging" font-size="8.012543092145998px">10uF</text></g><g data-circuit-json-type="schematic_component" data-schematic-component-id="schematic_component_12"><rect class="component-overlay" x="502.5645083909811" y="456.72534288226495" width="23.592487993540942" height="48.96554111866999" fill="transparent"/><path d="M 514.5833230292001 505.69088400093494 L 514.5833230292001 484.32410242187893" stroke="rgb(132, 0, 0)" fill="none" stroke-width="0.890282565794px" stroke-linecap="round"/><path d="M 514.5833230292001 477.20184189552697 L 514.5833230292001 456.72534288226495" stroke="rgb(132, 0, 0)" fill="none" stroke-width="0.890282565794px" stroke-linecap="round"/><path d="M 526.156996384522 484.32410242187893 L 502.5645083909811 484.32410242187893" stroke="rgb(132, 0, 0)" fill="none" stroke-width="0.890282565794px" stroke-linecap="round"/><path d="M 526.156996384522 477.20184189552697 L 502.5645083909811 477.20184189552697" stroke="rgb(132, 0, 0)" fill="none" stroke-width="0.890282565794px" stroke-linecap="round"/><text x="518.8121652167216" y="472.30528778365994" stroke="rgb(245, 241, 237)" stroke-width="0.890282565794px" paint-order="stroke" fill="rgb(15, 15, 15)" font-family="sans-serif" text-anchor="start" dominant-baseline="ideographic" font-size="8.012543092145998px">C7</text><text x="518.8121652167216" y="490.11093909953996" fill="rgb(15, 15, 15)" font-family="sans-serif" text-anchor="start" dominant-baseline="hanging" font-size="8.012543092145998px">100nF</text></g><g class="schematic-port-hover" data-schematic-port-id="source_port_0"><circle cx="1033.172917604205" cy="187.41486672958" r="1.780565131588" fill="red" opacity="0"/></g><g class="schematic-port-hover" data-schematic-port-id="source_port_1"><circle cx="1033.172917604205" cy="196.31769238752" r="1.780565131588" fill="red" opacity="0"/></g><g class="schematic-port-hover" data-schematic-port-id="source_port_2"><circle cx="1033.172917604205" cy="205.22051804545998" r="1.780565131588" fill="red" opacity="0"/></g><g class="schematic-port-hover" data-schematic-port-id="source_port_3"><circle cx="1033.172917604205" cy="214.1233437034" r="1.780565131588" fill="red" opacity="0"/></g><g class="schematic-port-hover" data-schematic-port-id="source_port_4"><circle cx="1033.172917604205" cy="223.02616936134" r="1.780565131588" fill="red" opacity="0"/></g><g class="schematic-port-hover" data-schematic-port-id="source_port_5"><circle cx="1033.172917604205" cy="231.92899501927997" r="1.780565131588" fill="red" opacity="0"/></g><g class="schematic-port-hover" data-schematic-port-id="source_port_6"><circle cx="1033.172917604205" cy="240.83182067721998" r="1.780565131588" fill="red" opacity="0"/></g><g class="schematic-port-hover" data-schematic-port-id="source_port_7"><circle cx="1153.361063986395" cy="240.83182067721998" r="1.780565131588" fill="red" opacity="0"/></g><g class="schematic-port-hover" data-schematic-port-id="source_port_8"><circle cx="1153.361063986395" cy="231.92899501927997" r="1.780565131588" fill="red" opacity="0"/></g><g class="schematic-port-hover" data-schematic-port-id="source_port_9"><circle cx="1153.361063986395" cy="223.02616936134" r="1.780565131588" fill="red" opacity="0"/></g><g class="schematic-port-hover" data-schematic-port-id="source_port_10"><circle cx="1153.361063986395" cy="214.1233437034" r="1.780565131588" fill="red" opacity="0"/></g><g class="schematic-port-hover" data-schematic-port-id="source_port_11"><circle cx="1153.361063986395" cy="205.22051804545998" r="1.780565131588" fill="red" opacity="0"/></g><g class="schematic-port-hover" data-schematic-port-id="source_port_12"><circle cx="1153.361063986395" cy="196.31769238752" r="1.780565131588" fill="red" opacity="0"/></g><g class="schematic-port-hover" data-schematic-port-id="source_port_13"><circle cx="1153.361063986395" cy="187.41486672958" r="1.780565131588" fill="red" opacity="0"/></g><g class="schematic-port-hover" data-schematic-port-id="source_port_14"><circle cx="167.37312236954" cy="218.57475653236997" r="1.780565131588" fill="red" opacity="0"/></g><g class="schematic-port-hover" data-schematic-port-id="source_port_16"><circle cx="167.37312236954" cy="209.67193087443002" r="1.780565131588" fill="red" opacity="0"/></g><g class="schematic-port-hover" data-schematic-port-id="source_port_34"><circle cx="247.498553291" cy="189.640573144065" r="1.780565131588" fill="red" opacity="0"/></g><g class="schematic-port-hover" data-schematic-port-id="source_port_35"><circle cx="247.498553291" cy="238.606114262735" r="1.780565131588" fill="red" opacity="0"/></g><g class="schematic-port-hover" data-schematic-port-id="source_port_36"><circle cx="381.04093816010004" cy="278.668829723465" r="1.780565131588" fill="red" opacity="0"/></g><g class="schematic-port-hover" data-schematic-port-id="source_port_37"><circle cx="381.04093816010004" cy="327.63437084213496" r="1.780565131588" fill="red" opacity="0"/></g><g class="schematic-port-hover" data-schematic-port-id="source_port_38"><circle cx="381.04093816010004" cy="100.61231656466501" r="1.780565131588" fill="red" opacity="0"/></g><g class="schematic-port-hover" data-schematic-port-id="source_port_39"><circle cx="381.04093816010004" cy="149.577857683335" r="1.780565131588" fill="red" opacity="0"/></g><g class="schematic-port-hover" data-schematic-port-id="source_port_40"><circle cx="470.0691947395" cy="189.640573144065" r="1.780565131588" fill="red" opacity="0"/></g><g class="schematic-port-hover" data-schematic-port-id="source_port_41"><circle cx="470.0691947395" cy="238.606114262735" r="1.780565131588" fill="red" opacity="0"/></g><g class="schematic-port-hover" data-schematic-port-id="source_port_42"><circle cx="623.642937338965" cy="214.1233437034" r="1.780565131588" fill="red" opacity="0"/></g><g class="schematic-port-hover" data-schematic-port-id="source_port_43"><circle cx="672.608478457635" cy="214.1233437034" r="1.780565131588" fill="red" opacity="0"/></g><g class="schematic-port-hover" data-schematic-port-id="source_port_44"><circle cx="737.1539644777" cy="278.66882972346497" r="1.780565131588" fill="red" opacity="0"/></g><g class="schematic-port-hover" data-schematic-port-id="source_port_45"><circle cx="737.1539644777" cy="327.63437084213496" r="1.780565131588" fill="red" opacity="0"/></g><g class="schematic-port-hover" data-schematic-port-id="source_port_46"><circle cx="801.6994504977649" cy="214.1233437034" r="1.780565131588" fill="red" opacity="0"/></g><g class="schematic-port-hover" data-schematic-port-id="source_port_47"><circle cx="850.6649916164349" cy="214.1233437034" r="1.780565131588" fill="red" opacity="0"/></g><g class="schematic-port-hover" data-schematic-port-id="source_port_48"><circle cx="915.2104776365" cy="278.66882972346497" r="1.780565131588" fill="red" opacity="0"/></g><g class="schematic-port-hover" data-schematic-port-id="source_port_49"><circle cx="915.2104776365" cy="327.63437084213496" r="1.780565131588" fill="red" opacity="0"/></g><g class="schematic-port-hover" data-schematic-port-id="source_port_50"><circle cx="267.52991102136497" cy="393.070139427994" r="1.780565131588" fill="red" opacity="0"/></g><g class="schematic-port-hover" data-schematic-port-id="source_port_51"><circle cx="316.495452140035" cy="393.51528071089103" r="1.780565131588" fill="red" opacity="0"/></g><g class="schematic-port-hover" data-schematic-port-id="source_port_52"><circle cx="425.5550664498" cy="503.24260694500146" r="1.780565131588" fill="red" opacity="0"/></g><g class="schematic-port-hover" data-schematic-port-id="source_port_53"><circle cx="425.5550664498" cy="459.17361993819844" r="1.780565131588" fill="red" opacity="0"/></g><g class="schematic-port-hover" data-schematic-port-id="source_port_54"><circle cx="514.5833230292001" cy="456.72534288226495" r="1.780565131588" fill="red" opacity="0"/></g><g class="schematic-port-hover" data-schematic-port-id="source_port_55"><circle cx="514.5833230292001" cy="505.69088400093494" r="1.780565131588" fill="red" opacity="0"/></g><rect class="component-overlay" x="464.72749934473603" y="384.167313770054" width="10.683390789527948" height="8.012543092145961" fill="transparent"/><path d="M 475.410890134264 384.167313770054 L 464.72749934473603 384.167313770054" stroke="rgb(132, 0, 0)" fill="none" stroke-width="0.890282565794px" stroke-linecap="round"/><path d="M 470.0691947395 384.167313770054 L 470.0691947395 392.1798568622" stroke="rgb(132, 0, 0)" fill="none" stroke-width="0.890282565794px" stroke-linecap="round"/><text x="470.0691947395" y="381.941607355569" fill="rgb(15, 15, 15)" font-family="sans-serif" text-anchor="middle" dominant-baseline="ideographic" font-size="8.012543092145998px">V3_3_ANALOG</text><path class="net-label" d="
    M 381.04093816010004,214.1233437034
    L 378.63717523245623,218.9308695586876
    L 350.3558657257335,218.9308695586876
    L 350.3558657257335,209.3158178481124
    L 378.63717523245623,209.3158178481124
    Z
  " fill="rgba(255, 255, 255, 0.6)" stroke="rgb(132, 0, 0)" stroke-width="0.890282565794px"/><text class="net-label-text" x="377.03466661402706" y="214.1233437034" fill="rgb(132, 0, 0)" text-anchor="end" dominant-baseline="central" font-family="sans-serif" font-variant-numeric="tabular-nums" font-size="8.012543092145998px" transform="">VBIAS</text><path class="net-label" d="
    M 559.0974513189,214.1233437034
    L 563.9049771741876,216.5271066310438
    L 563.9049771741876,260.01444236152804
    L 554.2899254636123,260.01444236152804
    L 554.2899254636123,216.5271066310438
    Z
  " fill="rgba(255, 255, 255, 0.6)" stroke="rgb(132, 0, 0)" stroke-width="0.890282565794px"/><text class="net-label-text" x="559.0974513189" y="218.129615249473" fill="rgb(132, 0, 0)" text-anchor="start" dominant-baseline="central" font-family="sans-serif" font-variant-numeric="tabular-nums" font-size="8.012543092145998px" transform="rotate(90 559.0974513189 218.129615249473)">ADC_RAW</text><path class="net-label" d="
    M 781.6680927673999,214.1233437034
    L 786.4756186226875,216.5271066310438
    L 786.4756186226875,253.30171181544128
    L 776.8605669121123,253.30171181544128
    L 776.8605669121123,216.5271066310438
    Z
  " fill="rgba(255, 255, 255, 0.6)" stroke="rgb(132, 0, 0)" stroke-width="0.890282565794px"/><text class="net-label-text" x="781.6680927673999" y="218.129615249473" fill="rgb(132, 0, 0)" text-anchor="start" dominant-baseline="central" font-family="sans-serif" font-variant-numeric="tabular-nums" font-size="8.012543092145998px" transform="rotate(90 781.6680927673999 218.129615249473)">NODE_A</text><path class="net-label" d="
    M 959.7246059262,214.1233437034
    L 964.5321317814876,216.5271066310438
    L 964.5321317814876,245.69869870356052
    L 954.9170800709123,245.69869870356052
    L 954.9170800709123,216.5271066310438
    Z
  " fill="rgba(255, 255, 255, 0.6)" stroke="rgb(132, 0, 0)" stroke-width="0.890282565794px"/><text class="net-label-text" x="959.7246059262" y="218.129615249473" fill="rgb(132, 0, 0)" text-anchor="start" dominant-baseline="central" font-family="sans-serif" font-variant-numeric="tabular-nums" font-size="8.012543092145998px" transform="rotate(90 959.7246059262 218.129615249473)">GPIO2</text><path class="net-label" d="
    M 915.2104776365,196.31769238751997
    L 912.8067147088561,201.12521824280756
    L 883.6351226363395,201.12521824280756
    L 883.6351226363395,191.51016653223238
    L 912.8067147088561,191.51016653223238
    Z
  " fill="rgba(255, 255, 255, 0.6)" stroke="rgb(132, 0, 0)" stroke-width="0.890282565794px"/><text class="net-label-text" x="911.204206090427" y="196.31769238751997" fill="rgb(132, 0, 0)" text-anchor="end" dominant-baseline="central" font-family="sans-serif" font-variant-numeric="tabular-nums" font-size="8.012543092145998px" transform="">GPIO2</text><path class="net-label" d="
    M 850.6649916164349,214.1233437034
    L 853.0687545440787,209.3158178481124
    L 882.2403466165954,209.3158178481124
    L 882.2403466165954,218.9308695586876
    L 853.0687545440787,218.9308695586876
    Z
  " fill="rgba(255, 255, 255, 0.6)" stroke="rgb(132, 0, 0)" stroke-width="0.890282565794px"/><text class="net-label-text" x="854.6712631625079" y="214.1233437034" fill="rgb(132, 0, 0)" text-anchor="start" dominant-baseline="central" font-family="sans-serif" font-variant-numeric="tabular-nums" font-size="8.012543092145998px" transform="">GPIO2</text><rect class="component-overlay" x="1156.9221942495708" y="197.207974953314" width="10.683390789527948" height="8.012543092146018" fill="transparent"/><path d="M 1167.6055850390987 197.207974953314 L 1156.9221942495708 197.207974953314" stroke="rgb(132, 0, 0)" fill="none" stroke-width="0.890282565794px" stroke-linecap="round"/><path d="M 1162.2638896443348 197.207974953314 L 1162.2638896443348 205.22051804546" stroke="rgb(132, 0, 0)" fill="none" stroke-width="0.890282565794px" stroke-linecap="round"/><text x="1162.2638896443348" y="194.982268538829" fill="rgb(15, 15, 15)" font-family="sans-serif" text-anchor="middle" dominant-baseline="ideographic" font-size="8.012543092145998px">V3_3</text><path class="net-label" d="
    M 1153.361063986395,196.31769238752
    L 1155.7648269140388,191.5101665322324
    L 1177.74293585494,191.5101665322324
    L 1177.74293585494,201.1252182428076
    L 1155.7648269140388,201.1252182428076
    Z
  " fill="rgba(255, 255, 255, 0.6)" stroke="rgb(132, 0, 0)" stroke-width="0.890282565794px"/><text class="net-label-text" x="1157.3673355324681" y="196.31769238752" fill="rgb(132, 0, 0)" text-anchor="start" dominant-baseline="central" font-family="sans-serif" font-variant-numeric="tabular-nums" font-size="8.012543092145998px" transform="">GND</text><rect class="component-overlay" x="375.69924276533607" y="247.50893992067498" width="10.683390789527948" height="8.012543092146018" fill="transparent"/><path d="M 375.69924276533607 255.521483012821 L 386.382633554864 255.521483012821" stroke="rgb(132, 0, 0)" fill="none" stroke-width="0.890282565794px" stroke-linecap="round"/><path d="M 381.04093816010004 255.521483012821 L 381.04093816010004 247.50893992067498" stroke="rgb(132, 0, 0)" fill="none" stroke-width="0.890282565794px" stroke-linecap="round"/><text x="381.04093816010004" y="257.747189427306" fill="rgb(15, 15, 15)" font-family="sans-serif" text-anchor="middle" dominant-baseline="hanging" font-size="8.012543092145998px">GND</text><rect class="component-overlay" x="731.812269082936" y="336.537196500075" width="10.683390789527948" height="8.012543092145961" fill="transparent"/><path d="M 731.812269082936 344.549739592221 L 742.495659872464 344.549739592221" stroke="rgb(132, 0, 0)" fill="none" stroke-width="0.890282565794px" stroke-linecap="round"/><path d="M 737.1539644777 344.549739592221 L 737.1539644777 336.537196500075" stroke="rgb(132, 0, 0)" fill="none" stroke-width="0.890282565794px" stroke-linecap="round"/><text x="737.1539644777" y="346.77544600670603" fill="rgb(15, 15, 15)" font-family="sans-serif" text-anchor="middle" dominant-baseline="hanging" font-size="8.012543092145998px">GND</text><rect class="component-overlay" x="509.2416276344361" y="514.593709658875" width="10.683390789527948" height="8.012543092145961" fill="transparent"/><path d="M 509.2416276344361 522.606252751021 L 519.925018423964 522.606252751021" stroke="rgb(132, 0, 0)" fill="none" stroke-width="0.890282565794px" stroke-linecap="round"/><path d="M 514.5833230292001 522.606252751021 L 514.5833230292001 514.593709658875" stroke="rgb(132, 0, 0)" fill="none" stroke-width="0.890282565794px" stroke-linecap="round"/><text x="514.5833230292001" y="524.831959165506" fill="rgb(15, 15, 15)" font-family="sans-serif" text-anchor="middle" dominant-baseline="hanging" font-size="8.012543092145998px">GND</text><rect class="component-overlay" x="222.12550016587105" y="239.49639682852902" width="10.683390789528005" height="8.012543092146018" fill="transparent"/><path d="M 232.80889095539905 239.49639682852902 L 222.12550016587105 239.49639682852902" stroke="rgb(132, 0, 0)" fill="none" stroke-width="0.890282565794px" stroke-linecap="round"/><path d="M 227.46719556063505 239.49639682852902 L 227.46719556063505 247.50893992067503" stroke="rgb(132, 0, 0)" fill="none" stroke-width="0.890282565794px" stroke-linecap="round"/><text x="227.46719556063505" y="237.27069041404403" fill="rgb(15, 15, 15)" font-family="sans-serif" text-anchor="middle" dominant-baseline="ideographic" font-size="8.012543092145998px">VBIAS</text><rect class="component-overlay" x="366.79641710739605" y="83.69694781457909" width="10.683390789527948" height="8.01254309214599" fill="transparent"/><path d="M 377.479807896924 83.69694781457909 L 366.79641710739605 83.69694781457909" stroke="rgb(132, 0, 0)" fill="none" stroke-width="0.890282565794px" stroke-linecap="round"/><path d="M 372.13811250216 83.69694781457909 L 372.13811250216 91.70949090672508" stroke="rgb(132, 0, 0)" fill="none" stroke-width="0.890282565794px" stroke-linecap="round"/><text x="372.13811250216" y="81.47124140009409" fill="rgb(15, 15, 15)" font-family="sans-serif" text-anchor="middle" dominant-baseline="ideographic" font-size="8.012543092145998px">VBIAS</text><rect class="component-overlay" x="464.72749934473603" y="181.628030051919" width="10.683390789527948" height="8.012543092146018" fill="transparent"/><path d="M 475.410890134264 181.628030051919 L 464.72749934473603 181.628030051919" stroke="rgb(132, 0, 0)" fill="none" stroke-width="0.890282565794px" stroke-linecap="round"/><path d="M 470.0691947395 181.628030051919 L 470.0691947395 189.64057314406503" stroke="rgb(132, 0, 0)" fill="none" stroke-width="0.890282565794px" stroke-linecap="round"/><text x="470.0691947395" y="179.40232363743402" fill="rgb(15, 15, 15)" font-family="sans-serif" text-anchor="middle" dominant-baseline="ideographic" font-size="8.012543092145998px">VBIAS</text><path class="net-label" d="
    M 247.498553291,180.737747486125
    L 249.90231621864382,175.9302216308374
    L 293.38965194912805,175.9302216308374
    L 293.38965194912805,185.54527334141258
    L 249.90231621864382,185.54527334141258
    Z
  " fill="rgba(255, 255, 255, 0.6)" stroke="rgb(132, 0, 0)" stroke-width="0.890282565794px"/><text class="net-label-text" x="251.50482483707302" y="180.737747486125" fill="rgb(132, 0, 0)" text-anchor="start" dominant-baseline="central" font-family="sans-serif" font-variant-numeric="tabular-nums" font-size="8.012543092145998px" transform="">ADC_RAW</text><path class="net-label" d="
    M 623.642937338965,214.1233437034
    L 621.2391744113212,218.9308695586876
    L 577.751838680837,218.9308695586876
    L 577.751838680837,209.3158178481124
    L 621.2391744113212,209.3158178481124
    Z
  " fill="rgba(255, 255, 255, 0.6)" stroke="rgb(132, 0, 0)" stroke-width="0.890282565794px"/><text class="net-label-text" x="619.636665792892" y="214.1233437034" fill="rgb(132, 0, 0)" text-anchor="end" dominant-baseline="central" font-family="sans-serif" font-variant-numeric="tabular-nums" font-size="8.012543092145998px" transform="">ADC_RAW</text><rect class="component-overlay" x="375.69924276533607" y="270.656286631319" width="10.683390789527948" height="8.012543092145961" fill="transparent"/><path d="M 386.382633554864 270.656286631319 L 375.69924276533607 270.656286631319" stroke="rgb(132, 0, 0)" fill="none" stroke-width="0.890282565794px" stroke-linecap="round"/><path d="M 381.04093816010004 270.656286631319 L 381.04093816010004 278.66882972346497" stroke="rgb(132, 0, 0)" fill="none" stroke-width="0.890282565794px" stroke-linecap="round"/><text x="381.04093816010004" y="268.43058021683396" fill="rgb(15, 15, 15)" font-family="sans-serif" text-anchor="middle" dominant-baseline="ideographic" font-size="8.012543092145998px">V3_3_ANALOG</text><path class="net-label" d="
    M 317.830875988726,393.51528071089103
    L 320.2346389163698,388.7077548556034
    L 380.18626689693775,388.7077548556034
    L 380.18626689693775,398.32280656617866
    L 320.2346389163698,398.32280656617866
    Z
  " fill="rgba(255, 255, 255, 0.6)" stroke="rgb(132, 0, 0)" stroke-width="0.890282565794px"/><text class="net-label-text" x="321.837147534799" y="393.51528071089103" fill="rgb(132, 0, 0)" text-anchor="start" dominant-baseline="central" font-family="sans-serif" font-variant-numeric="tabular-nums" font-size="8.012543092145998px" transform="">V3_3_ANALOG</text><rect class="component-overlay" x="509.2416276344361" y="439.80997413217904" width="10.683390789527948" height="8.012543092145961" fill="transparent"/><path d="M 519.925018423964 439.80997413217904 L 509.2416276344361 439.80997413217904" stroke="rgb(132, 0, 0)" fill="none" stroke-width="0.890282565794px" stroke-linecap="round"/><path d="M 514.5833230292001 439.80997413217904 L 514.5833230292001 447.822517224325" stroke="rgb(132, 0, 0)" fill="none" stroke-width="0.890282565794px" stroke-linecap="round"/><text x="514.5833230292001" y="437.584267717694" fill="rgb(15, 15, 15)" font-family="sans-serif" text-anchor="middle" dominant-baseline="ideographic" font-size="8.012543092145998px">V3_3_ANALOG</text><path class="net-label" d="
    M 737.1539644777,214.1233437034
    L 739.5577274053438,209.3158178481124
    L 776.3323325897413,209.3158178481124
    L 776.3323325897413,218.9308695586876
    L 739.5577274053438,218.9308695586876
    Z
  " fill="rgba(255, 255, 255, 0.6)" stroke="rgb(132, 0, 0)" stroke-width="0.890282565794px"/><text class="net-label-text" x="741.160236023773" y="214.1233437034" fill="rgb(132, 0, 0)" text-anchor="start" dominant-baseline="central" font-family="sans-serif" font-variant-numeric="tabular-nums" font-size="8.012543092145998px" transform="">NODE_A</text><path class="net-label" d="
    M 801.6994504977649,214.1233437034
    L 799.2956875701211,218.9308695586876
    L 762.5210823857236,218.9308695586876
    L 762.5210823857236,209.3158178481124
    L 799.2956875701211,209.3158178481124
    Z
  " fill="rgba(255, 255, 255, 0.6)" stroke="rgb(132, 0, 0)" stroke-width="0.890282565794px"/><text class="net-label-text" x="797.693178951692" y="214.1233437034" fill="rgb(132, 0, 0)" text-anchor="end" dominant-baseline="central" font-family="sans-serif" font-variant-numeric="tabular-nums" font-size="8.012543092145998px" transform="">NODE_A</text></svg>